ToneOZ-Quicksnow-W700.ufo
<glyph name="exclam" format="2">
  <unicode hex="0021" />
  <advance width="267" />
  <outline>
    <contour>
      <point x="134" y="221" type="qcurve" />
      <point x="100" y="221" />
      <point x="97" y="259" type="qcurve" />
      <point x="68" y="627" type="line" />
      <point x="66" y="658" />
      <point x="103" y="700" />
      <point x="133" y="700" type="qcurve" />
      <point x="163" y="700" />
      <point x="201" y="658" />
      <point x="198" y="627" type="qcurve" />
      <point x="170" y="259" type="line" />
      <point x="167" y="221" />
    </contour>
    <contour>
      <point x="127" y="0" type="line" />
      <point x="98" y="0" />
      <point x="67" y="31" />
      <point x="67" y="60" type="qcurve" />
      <point x="67" y="77" type="line" />
      <point x="67" y="106" />
      <point x="98" y="137" />
      <point x="127" y="137" type="qcurve" />
      <point x="140" y="137" type="line" />
      <point x="169" y="137" />
      <point x="200" y="106" />
      <point x="200" y="77" type="qcurve" />
      <point x="200" y="60" type="line" />
      <point x="200" y="31" />
      <point x="169" y="0" />
      <point x="140" y="0" type="qcurve" />
    </contour>
  </outline>
</glyph>
<glyph name="quotedbl" format="2">
  <unicode hex="0022" />
  <advance width="430" />
  <outline>
    <contour>
      <point x="50" y="652" type="line" />
      <point x="55" y="700" />
      <point x="102" y="700" type="qcurve" />
      <point x="131" y="700" type="line" />
      <point x="159" y="700" />
      <point x="181" y="669" />
      <point x="173" y="643" type="qcurve" />
      <point x="105" y="434" type="line" />
      <point x="93" y="401" />
      <point x="63" y="401" type="qcurve" />
      <point x="31" y="401" />
      <point x="34" y="442" type="qcurve" />
    </contour>
    <contour>
      <point x="270" y="652" type="line" />
      <point x="275" y="700" />
      <point x="322" y="700" type="qcurve" />
      <point x="351" y="700" type="line" />
      <point x="379" y="700" />
      <point x="401" y="669" />
      <point x="392" y="643" type="qcurve" />
      <point x="324" y="434" type="line" />
      <point x="312" y="401" />
      <point x="282" y="401" type="qcurve" />
      <point x="250" y="401" />
      <point x="253" y="443" type="qcurve" />
    </contour>
  </outline>
</glyph>
<glyph name="numbersign" format="2">
  <unicode hex="0023" />
  <advance width="693" />
  <outline>
    <contour>
      <point x="161" y="0" type="qcurve" />
      <point x="135" y="0" />
      <point x="106" y="39" />
      <point x="110" y="67" type="qcurve" />
      <point x="211" y="657" type="line" />
      <point x="214" y="677" />
      <point x="242" y="700" />
      <point x="261" y="700" type="qcurve" />
      <point x="288" y="700" />
      <point x="318" y="661" />
      <point x="313" y="633" type="qcurve" />
      <point x="212" y="43" type="line" />
      <point x="209" y="24" />
      <point x="181" y="0" />
    </contour>
    <contour>
      <point x="127" y="439" type="line" />
      <point x="104" y="439" />
      <point x="73" y="470" />
      <point x="73" y="493" type="qcurve" />
      <point x="73" y="515" />
      <point x="104" y="543" />
      <point x="127" y="543" type="qcurve" />
      <point x="603" y="543" type="line" />
      <point x="626" y="543" />
      <point x="657" y="512" />
      <point x="657" y="489" type="qcurve" />
      <point x="657" y="467" />
      <point x="626" y="439" />
      <point x="603" y="439" type="qcurve" />
    </contour>
    <contour>
      <point x="432" y="0" type="qcurve" />
      <point x="405" y="0" />
      <point x="375" y="39" />
      <point x="380" y="67" type="qcurve" />
      <point x="481" y="657" type="line" />
      <point x="484" y="677" />
      <point x="512" y="700" />
      <point x="532" y="700" type="qcurve" />
      <point x="558" y="700" />
      <point x="588" y="661" />
      <point x="583" y="633" type="qcurve" />
      <point x="482" y="43" type="line" />
      <point x="479" y="24" />
      <point x="452" y="0" />
    </contour>
    <contour>
      <point x="90" y="161" type="line" />
      <point x="67" y="161" />
      <point x="36" y="192" />
      <point x="36" y="215" type="qcurve" />
      <point x="36" y="237" />
      <point x="67" y="265" />
      <point x="90" y="265" type="qcurve" />
      <point x="567" y="265" type="line" />
      <point x="590" y="265" />
      <point x="621" y="234" />
      <point x="621" y="211" type="qcurve" />
      <point x="621" y="189" />
      <point x="590" y="161" />
      <point x="567" y="161" type="qcurve" />
    </contour>
  </outline>
</glyph>
<glyph name="percent" format="2">
  <unicode hex="0025" />
  <advance width="816" />
  <outline>
    <contour>
      <point x="194" y="320" type="qcurve" />
      <point x="146" y="320" />
      <point x="72" y="372" />
      <point x="30" y="460" />
      <point x="30" y="514" type="qcurve" />
      <point x="30" y="569" />
      <point x="72" y="657" />
      <point x="146" y="709" />
      <point x="194" y="709" type="qcurve" />
      <point x="243" y="709" />
      <point x="316" y="657" />
      <point x="357" y="569" />
      <point x="357" y="514" type="qcurve" />
      <point x="357" y="460" />
      <point x="313" y="372" />
      <point x="240" y="320" />
    </contour>
    <contour>
      <point x="194" y="409" type="qcurve" />
      <point x="224" y="409" />
      <point x="257" y="469" />
      <point x="257" y="514" type="qcurve" />
      <point x="257" y="559" />
      <point x="225" y="619" />
      <point x="194" y="619" type="qcurve" />
      <point x="164" y="619" />
      <point x="130" y="559" />
      <point x="130" y="514" type="qcurve" />
      <point x="130" y="469" />
      <point x="163" y="409" />
    </contour>
    <contour>
      <point x="623" y="-10" type="qcurve" />
      <point x="577" y="-10" />
      <point x="503" y="42" />
      <point x="459" y="130" />
      <point x="459" y="184" type="qcurve" />
      <point x="459" y="239" />
      <point x="501" y="327" />
      <point x="575" y="379" />
      <point x="623" y="379" type="qcurve" />
      <point x="672" y="379" />
      <point x="745" y="327" />
      <point x="786" y="239" />
      <point x="786" y="184" type="qcurve" />
      <point x="786" y="130" />
      <point x="742" y="42" />
      <point x="669" y="-10" />
    </contour>
    <contour>
      <point x="623" y="79" type="qcurve" />
      <point x="653" y="79" />
      <point x="686" y="139" />
      <point x="686" y="184" type="qcurve" />
      <point x="686" y="229" />
      <point x="654" y="289" />
      <point x="623" y="289" type="qcurve" />
      <point x="593" y="289" />
      <point x="559" y="229" />
      <point x="559" y="184" type="qcurve" />
      <point x="559" y="139" />
      <point x="592" y="79" />
    </contour>
    <contour>
      <point x="206" y="-2" type="qcurve" />
      <point x="190" y="-2" />
      <point x="154" y="25" />
      <point x="154" y="47" type="qcurve" />
      <point x="154" y="60" />
      <point x="164" y="77" type="qcurve" />
      <point x="562" y="678" type="line" />
      <point x="580" y="702" />
      <point x="603" y="702" type="qcurve" />
      <point x="620" y="702" />
      <point x="655" y="676" />
      <point x="655" y="653" type="qcurve" />
      <point x="655" y="640" />
      <point x="645" y="623" type="qcurve" />
      <point x="247" y="22" type="line" />
      <point x="229" y="-2" />
    </contour>
  </outline>
</glyph>
<glyph name="ampersand" format="2">
  <unicode hex="0026" />
  <advance width="709" />
  <outline>
    <contour>
      <point x="279" y="-10" type="qcurve" />
      <point x="208" y="-10" />
      <point x="95" y="52" />
      <point x="30" y="152" />
      <point x="30" y="209" type="qcurve" />
      <point x="30" y="259" />
      <point x="65" y="342" />
      <point x="136" y="406" />
      <point x="191" y="428" type="qcurve" />
      <point x="269" y="347" type="line" />
      <point x="199" y="332" />
      <point x="152" y="271" />
      <point x="152" y="227" type="qcurve" />
      <point x="152" y="197" />
      <point x="182" y="140" />
      <point x="250" y="103" />
      <point x="307" y="103" type="qcurve" />
      <point x="354" y="103" />
      <point x="429" y="146" />
      <point x="484" y="217" />
      <point x="519" y="304" />
      <point x="525" y="349" type="qcurve" />
      <point x="527" y="365" />
      <point x="548" y="383" />
      <point x="573" y="383" type="qcurve" />
      <point x="599" y="383" />
      <point x="629" y="341" />
      <point x="625" y="313" type="qcurve" />
      <point x="616" y="253" />
      <point x="565" y="138" />
      <point x="480" y="45" />
      <point x="359" y="-10" />
    </contour>
    <contour>
      <point x="635" y="-2" type="qcurve" />
      <point x="623" y="-2" />
      <point x="606" y="4" />
      <point x="601" y="8" type="qcurve" />
      <point x="529" y="70" />
      <point x="410" y="175" />
      <point x="310" y="271" />
      <point x="266" y="321" type="qcurve" />
      <point x="231" y="361" />
      <point x="173" y="425" />
      <point x="138" y="486" />
      <point x="138" y="523" type="qcurve" />
      <point x="138" y="572" />
      <point x="191" y="657" />
      <point x="289" y="710" />
      <point x="356" y="710" type="qcurve" />
      <point x="425" y="710" />
      <point x="536" y="664" />
      <point x="555" y="626" type="qcurve" />
      <point x="556" y="625" />
      <point x="564" y="602" />
      <point x="564" y="587" type="qcurve" />
      <point x="564" y="568" />
      <point x="536" y="540" />
      <point x="512" y="540" type="qcurve" />
      <point x="496" y="540" />
      <point x="478" y="552" />
      <point x="473" y="558" type="qcurve" />
      <point x="451" y="587" />
      <point x="394" y="610" />
      <point x="356" y="610" type="qcurve" />
      <point x="311" y="610" />
      <point x="264" y="562" />
      <point x="264" y="529" type="qcurve" />
      <point x="264" y="498" />
      <point x="308" y="437" />
      <point x="365" y="383" />
      <point x="384" y="362" type="qcurve" />
      <point x="415" y="329" />
      <point x="492" y="254" />
      <point x="570" y="183" />
      <point x="637" y="122" />
      <point x="658" y="102" type="qcurve" />
      <point x="671" y="90" />
      <point x="684" y="66" />
      <point x="684" y="49" type="qcurve" />
      <point x="684" y="36" />
      <point x="661" y="-2" />
    </contour>
  </outline>
</glyph>
<glyph name="quotesingle" format="2">
  <unicode hex="0027" />
  <advance width="212" />
  <outline>
    <contour>
      <point x="50" y="652" type="line" />
      <point x="55" y="700" />
      <point x="102" y="700" type="qcurve" />
      <point x="133" y="700" type="line" />
      <point x="161" y="700" />
      <point x="183" y="669" />
      <point x="174" y="643" type="qcurve" />
      <point x="106" y="434" type="line" />
      <point x="94" y="401" />
      <point x="63" y="401" type="qcurve" />
      <point x="31" y="401" />
      <point x="34" y="442" type="qcurve" />
    </contour>
  </outline>
</glyph>
<glyph name="parenleft" format="2">
  <unicode hex="0028" />
  <advance width="357" />
  <outline>
    <contour>
      <point x="292" y="-182" type="qcurve" />
      <point x="277" y="-182" />
      <point x="265" y="-174" type="qcurve" />
      <point x="189" y="-123" />
      <point x="84" y="12" />
      <point x="30" y="172" />
      <point x="30" y="259" type="qcurve" />
      <point x="30" y="346" />
      <point x="84" y="506" />
      <point x="189" y="641" />
      <point x="265" y="692" type="qcurve" />
      <point x="277" y="700" />
      <point x="292" y="700" type="qcurve" />
      <point x="316" y="700" />
      <point x="342" y="664" />
      <point x="342" y="648" type="qcurve" />
      <point x="342" y="625" />
      <point x="321" y="608" type="qcurve" />
      <point x="264" y="563" />
      <point x="188" y="452" />
      <point x="151" y="326" />
      <point x="151" y="259" type="qcurve" />
      <point x="151" y="192" />
      <point x="186" y="64" />
      <point x="262" y="-47" />
      <point x="321" y="-90" type="qcurve" />
      <point x="342" y="-105" />
      <point x="342" y="-130" type="qcurve" />
      <point x="342" y="-148" />
      <point x="313" y="-182" />
    </contour>
  </outline>
</glyph>
<glyph name="parenright" format="2">
  <unicode hex="0029" />
  <advance width="357" />
  <outline>
    <contour>
      <point x="65" y="-172" type="qcurve" />
      <point x="41" y="-172" />
      <point x="15" y="-136" />
      <point x="15" y="-120" type="qcurve" />
      <point x="15" y="-96" />
      <point x="36" y="-80" type="qcurve" />
      <point x="80" y="-46" />
      <point x="132" y="31" type="qcurve" />
      <point x="164" y="78" />
      <point x="188" y="159" type="qcurve" />
      <point x="206" y="222" />
      <point x="206" y="299" type="qcurve" />
      <point x="206" y="376" />
      <point x="171" y="514" />
      <point x="96" y="626" />
      <point x="36" y="668" type="qcurve" />
      <point x="15" y="683" />
      <point x="15" y="708" type="qcurve" />
      <point x="15" y="726" />
      <point x="44" y="760" />
      <point x="65" y="760" type="qcurve" />
      <point x="80" y="760" />
      <point x="92" y="752" type="qcurve" />
      <point x="169" y="701" />
      <point x="273" y="566" />
      <point x="327" y="396" />
      <point x="327" y="299" type="qcurve" />
      <point x="327" y="202" />
      <point x="300" y="122" type="qcurve" />
      <point x="267" y="24" />
      <point x="221" y="-35" type="qcurve" />
      <point x="153" y="-123" />
      <point x="92" y="-164" type="qcurve" />
      <point x="80" y="-172" />
    </contour>
  </outline>
</glyph>
<glyph name="asterisk" format="2">
  <unicode hex="002A" />
  <advance width="363" />
  <outline>
    <contour>
      <point x="181" y="382" type="qcurve" />
      <point x="167" y="382" />
      <point x="150" y="402" />
      <point x="151" y="417" type="qcurve" />
      <point x="160" y="496" type="line" />
      <point x="161" y="499" />
      <point x="157" y="501" />
      <point x="154" y="499" type="qcurve" />
      <point x="89" y="452" type="line" />
      <point x="77" y="443" />
      <point x="51" y="448" />
      <point x="43" y="461" type="qcurve" />
      <point x="34" y="477" />
      <point x="45" y="501" />
      <point x="58" y="506" type="qcurve" />
      <point x="131" y="539" type="line" />
      <point x="134" y="540" />
      <point x="134" y="544" />
      <point x="131" y="545" type="qcurve" />
      <point x="58" y="578" type="line" />
      <point x="44" y="584" />
      <point x="36" y="610" />
      <point x="43" y="623" type="qcurve" />
      <point x="51" y="636" />
      <point x="77" y="641" />
      <point x="89" y="633" type="qcurve" />
      <point x="154" y="585" type="line" />
      <point x="157" y="583" />
      <point x="161" y="585" />
      <point x="160" y="588" type="qcurve" />
      <point x="151" y="667" type="line" />
      <point x="150" y="682" />
      <point x="168" y="702" />
      <point x="183" y="702" type="qcurve" />
      <point x="197" y="702" />
      <point x="215" y="682" />
      <point x="213" y="667" type="qcurve" />
      <point x="204" y="588" type="line" />
      <point x="203" y="585" />
      <point x="207" y="583" />
      <point x="210" y="585" type="qcurve" />
      <point x="275" y="632" type="line" />
      <point x="287" y="641" />
      <point x="314" y="636" />
      <point x="321" y="623" type="qcurve" />
      <point x="330" y="607" />
      <point x="319" y="583" />
      <point x="306" y="578" type="qcurve" />
      <point x="233" y="545" type="line" />
      <point x="230" y="544" />
      <point x="230" y="540" />
      <point x="233" y="539" type="qcurve" />
      <point x="306" y="506" type="line" />
      <point x="320" y="500" />
      <point x="329" y="474" />
      <point x="321" y="461" type="qcurve" />
      <point x="314" y="448" />
      <point x="287" y="443" />
      <point x="275" y="451" type="qcurve" />
      <point x="210" y="499" type="line" />
      <point x="207" y="501" />
      <point x="203" y="499" />
      <point x="204" y="496" type="qcurve" />
      <point x="213" y="417" type="line" />
      <point x="215" y="402" />
      <point x="196" y="382" />
    </contour>
  </outline>
</glyph>
<glyph name="plus" format="2">
  <unicode hex="002B" />
  <advance width="578" />
  <outline>
    <contour>
      <point x="96" y="276" type="line" />
      <point x="72" y="276" />
      <point x="40" y="308" />
      <point x="40" y="332" type="qcurve" />
      <point x="40" y="356" />
      <point x="72" y="386" />
      <point x="96" y="386" type="qcurve" />
      <point x="503" y="386" type="line" />
      <point x="527" y="386" />
      <point x="559" y="355" />
      <point x="559" y="331" type="qcurve" />
      <point x="559" y="307" />
      <point x="527" y="276" />
      <point x="503" y="276" type="qcurve" />
    </contour>
    <contour>
      <point x="298" y="81" type="qcurve" />
      <point x="270" y="81" />
      <point x="233" y="117" />
      <point x="233" y="145" type="qcurve" />
      <point x="233" y="535" type="line" />
      <point x="233" y="563" />
      <point x="271" y="599" />
      <point x="299" y="599" type="qcurve" />
      <point x="328" y="599" />
      <point x="363" y="563" />
      <point x="363" y="535" type="qcurve" />
      <point x="363" y="145" type="line" />
      <point x="363" y="117" />
      <point x="327" y="81" />
    </contour>
  </outline>
</glyph>
<glyph name="comma" format="2">
  <unicode hex="002C" />
  <advance width="275" />
  <outline>
    <contour>
      <point x="217" y="8" type="qcurve" />
      <point x="217" y="-25" />
      <point x="180" y="-92" />
      <point x="121" y="-137" />
      <point x="88" y="-137" type="qcurve" />
      <point x="77" y="-137" />
      <point x="52" y="-119" />
      <point x="52" y="-97" type="qcurve" />
      <point x="52" y="-74" />
      <point x="81" y="-65" />
      <point x="91" y="-60" type="qcurve" />
      <point x="104" y="-53" />
      <point x="119" y="-34" />
      <point x="119" y="-20" type="qcurve" />
      <point x="119" y="-9" />
      <point x="98" y="8" />
      <point x="81" y="8" type="qcurve" />
      <point x="75" y="8" />
      <point x="59" y="5" />
      <point x="53" y="1" type="qcurve" />
      <point x="43" y="6" />
      <point x="28" y="21" />
      <point x="28" y="38" type="qcurve" />
      <point x="28" y="69" />
      <point x="85" y="114" />
      <point x="123" y="114" type="qcurve" />
      <point x="166" y="114" />
      <point x="217" y="56" />
    </contour>
  </outline>
</glyph>
<glyph name="hyphen" format="2">
  <unicode hex="002D" />
  <advance width="396" />
  <outline>
    <contour>
      <point x="111" y="247" type="line" />
      <point x="85" y="247" />
      <point x="50" y="281" />
      <point x="50" y="307" type="qcurve" />
      <point x="50" y="333" />
      <point x="85" y="366" />
      <point x="111" y="366" type="qcurve" />
      <point x="285" y="366" type="line" />
      <point x="310" y="366" />
      <point x="346" y="331" />
      <point x="346" y="305" type="qcurve" />
      <point x="346" y="280" />
      <point x="310" y="247" />
      <point x="285" y="247" type="qcurve" />
    </contour>
  </outline>
</glyph>
<glyph name="period" format="2">
  <unicode hex="002E" />
  <advance width="249" />
  <outline>
    <contour>
      <point x="118" y="1" type="line" />
      <point x="89" y="1" />
      <point x="58" y="32" />
      <point x="58" y="61" type="qcurve" />
      <point x="58" y="78" type="line" />
      <point x="58" y="107" />
      <point x="89" y="138" />
      <point x="118" y="138" type="qcurve" />
      <point x="131" y="138" type="line" />
      <point x="160" y="138" />
      <point x="191" y="107" />
      <point x="191" y="78" type="qcurve" />
      <point x="191" y="61" type="line" />
      <point x="191" y="32" />
      <point x="160" y="1" />
      <point x="131" y="1" type="qcurve" />
    </contour>
  </outline>
</glyph>
<glyph name="slash" format="2">
  <unicode hex="002F" />
  <advance width="568" />
  <outline>
    <contour>
      <point x="84" y="-134" type="qcurve" />
      <point x="67" y="-134" />
      <point x="31" y="-106" />
      <point x="31" y="-84" type="qcurve" />
      <point x="31" y="-72" />
      <point x="37" y="-60" type="qcurve" />
      <point x="443" y="771" type="line" />
      <point x="450" y="785" />
      <point x="474" y="801" />
      <point x="487" y="801" type="qcurve" />
      <point x="504" y="801" />
      <point x="539" y="774" />
      <point x="539" y="751" type="qcurve" />
      <point x="539" y="739" />
      <point x="533" y="727" type="qcurve" />
      <point x="128" y="-104" type="line" />
      <point x="121" y="-118" />
      <point x="98" y="-134" />
    </contour>
  </outline>
</glyph>
<glyph name="zero" format="2">
  <unicode hex="0030" />
  <advance width="614" />
  <outline>
    <contour>
      <point x="307" y="-10" type="qcurve" />
      <point x="221" y="-10" />
      <point x="102" y="81" />
      <point x="40" y="244" />
      <point x="40" y="350" type="qcurve" />
      <point x="40" y="457" />
      <point x="102" y="619" />
      <point x="221" y="710" />
      <point x="307" y="710" type="qcurve" />
      <point x="393" y="710" />
      <point x="512" y="619" />
      <point x="574" y="457" />
      <point x="574" y="350" type="qcurve" />
      <point x="574" y="244" />
      <point x="512" y="81" />
      <point x="393" y="-10" />
    </contour>
    <contour>
      <point x="307" y="110" type="qcurve" />
      <point x="349" y="110" />
      <point x="410" y="163" />
      <point x="444" y="270" />
      <point x="444" y="350" type="qcurve" />
      <point x="444" y="431" />
      <point x="410" y="537" />
      <point x="349" y="590" />
      <point x="307" y="590" type="qcurve" />
      <point x="266" y="590" />
      <point x="204" y="537" />
      <point x="170" y="431" />
      <point x="170" y="350" type="qcurve" />
      <point x="170" y="270" />
      <point x="204" y="163" />
      <point x="266" y="110" />
    </contour>
  </outline>
</glyph>
<glyph name="one" format="2">
  <unicode hex="0031" />
  <advance width="389" />
  <outline>
    <contour>
      <point x="238" y="0" type="qcurve" />
      <point x="210" y="0" />
      <point x="174" y="35" />
      <point x="174" y="61" type="qcurve" />
      <point x="174" y="565" type="line" />
      <point x="188" y="543" type="line" />
      <point x="115" y="489" type="line" />
      <point x="101" y="478" />
      <point x="80" y="478" type="qcurve" />
      <point x="56" y="478" />
      <point x="20" y="514" />
      <point x="20" y="539" type="qcurve" />
      <point x="20" y="571" />
      <point x="51" y="591" type="qcurve" />
      <point x="195" y="687" type="line" />
      <point x="205" y="694" />
      <point x="230" y="700" />
      <point x="241" y="700" type="qcurve" />
      <point x="270" y="700" />
      <point x="304" y="665" />
      <point x="304" y="639" type="qcurve" />
      <point x="304" y="61" type="line" />
      <point x="304" y="35" />
      <point x="267" y="0" />
    </contour>
  </outline>
</glyph>
<glyph name="two" format="2">
  <unicode hex="0032" />
  <advance width="569" />
  <outline>
    <contour>
      <point x="458" y="110" type="line" />
      <point x="482" y="110" />
      <point x="514" y="78" />
      <point x="514" y="54" type="qcurve" />
      <point x="514" y="31" />
      <point x="482" y="0" />
      <point x="458" y="0" type="qcurve" />
      <point x="118" y="0" type="line" />
      <point x="92" y="0" />
      <point x="62" y="32" />
      <point x="62" y="57" type="qcurve" />
      <point x="62" y="82" />
      <point x="80" y="101" type="qcurve" />
      <point x="298" y="334" type="line" />
      <point x="335" y="374" />
      <point x="378" y="458" />
      <point x="378" y="489" type="qcurve" />
      <point x="378" y="539" />
      <point x="320" y="600" />
      <point x="272" y="600" type="qcurve" />
      <point x="253" y="600" />
      <point x="213" y="582" />
      <point x="176" y="550" />
      <point x="160" y="529" type="qcurve" />
      <point x="148" y="513" />
      <point x="124" y="505" />
      <point x="114" y="505" type="qcurve" />
      <point x="92" y="505" />
      <point x="55" y="538" />
      <point x="55" y="560" type="qcurve" />
      <point x="55" y="577" />
      <point x="78" y="609" />
      <point x="95" y="626" type="qcurve" />
      <point x="120" y="651" />
      <point x="182" y="689" />
      <point x="248" y="710" />
      <point x="279" y="710" type="qcurve" />
      <point x="346" y="710" />
      <point x="445" y="657" />
      <point x="499" y="560" />
      <point x="499" y="494" type="qcurve" />
      <point x="499" y="439" />
      <point x="434" y="304" />
      <point x="379" y="245" type="qcurve" />
      <point x="244" y="101" type="line" />
      <point x="233" y="110" type="line" />
    </contour>
  </outline>
</glyph>
<glyph name="three" format="2">
  <unicode hex="0033" />
  <advance width="537" />
  <outline>
    <contour>
      <point x="112" y="141" type="qcurve" />
      <point x="121" y="141" />
      <point x="142" y="135" />
      <point x="155" y="126" type="qcurve" />
      <point x="172" y="113" />
      <point x="219" y="93" />
      <point x="250" y="93" type="qcurve" />
      <point x="281" y="93" />
      <point x="336" y="124" />
      <point x="372" y="181" />
      <point x="372" y="221" type="qcurve" />
      <point x="372" y="259" />
      <point x="341" y="309" />
      <point x="290" y="335" />
      <point x="261" y="335" type="qcurve" />
      <point x="239" y="335" />
      <point x="210" y="327" />
      <point x="183" y="318" />
      <point x="165" y="318" type="qcurve" />
      <point x="142" y="318" />
      <point x="117" y="350" />
      <point x="117" y="372" type="qcurve" />
      <point x="117" y="386" />
      <point x="128" y="408" />
      <point x="139" y="421" type="qcurve" />
      <point x="315" y="608" type="line" />
      <point x="342" y="585" type="line" />
      <point x="96" y="585" type="line" />
      <point x="72" y="585" />
      <point x="40" y="617" />
      <point x="40" y="641" type="qcurve" />
      <point x="40" y="664" />
      <point x="72" y="695" />
      <point x="96" y="695" type="qcurve" />
      <point x="402" y="695" type="line" />
      <point x="433" y="695" />
      <point x="464" y="661" />
      <point x="464" y="635" type="qcurve" />
      <point x="464" y="622" />
      <point x="450" y="597" />
      <point x="440" y="587" type="qcurve" />
      <point x="263" y="397" type="line" />
      <point x="236" y="431" type="line" />
      <point x="247" y="436" />
      <point x="286" y="444" />
      <point x="299" y="444" type="qcurve" />
      <point x="358" y="444" />
      <point x="445" y="383" />
      <point x="492" y="286" />
      <point x="492" y="230" type="qcurve" />
      <point x="492" y="156" />
      <point x="426" y="48" />
      <point x="306" y="-10" />
      <point x="226" y="-10" type="qcurve" />
      <point x="189" y="-10" />
      <point x="117" y="8" />
      <point x="91" y="23" type="qcurve" />
      <point x="69" y="35" />
      <point x="54" y="64" />
      <point x="54" y="77" type="qcurve" />
      <point x="54" y="100" />
      <point x="87" y="141" />
    </contour>
  </outline>
</glyph>
<glyph name="four" format="2">
  <unicode hex="0034" />
  <advance width="588" />
  <outline>
    <contour>
      <point x="389" y="0" type="qcurve" />
      <point x="364" y="0" />
      <point x="330" y="35" />
      <point x="330" y="61" type="qcurve" />
      <point x="330" y="531" type="line" />
      <point x="351" y="526" type="line" />
      <point x="158" y="287" type="line" />
      <point x="153" y="300" type="line" />
      <point x="507" y="300" type="line" />
      <point x="531" y="300" />
      <point x="563" y="268" />
      <point x="563" y="244" type="qcurve" />
      <point x="563" y="221" />
      <point x="531" y="190" />
      <point x="507" y="190" type="qcurve" />
      <point x="70" y="190" type="line" />
      <point x="49" y="190" />
      <point x="10" y="224" />
      <point x="10" y="249" type="qcurve" />
      <point x="10" y="271" />
      <point x="25" y="289" type="qcurve" />
      <point x="341" y="676" type="line" />
      <point x="349" y="687" />
      <point x="375" y="700" />
      <point x="391" y="700" type="qcurve" />
      <point x="417" y="700" />
      <point x="450" y="665" />
      <point x="450" y="639" type="qcurve" />
      <point x="450" y="61" type="line" />
      <point x="450" y="35" />
      <point x="415" y="0" />
    </contour>
  </outline>
</glyph>
<glyph name="five" format="2">
  <unicode hex="0035" />
  <advance width="576" />
  <outline>
    <contour>
      <point x="241" y="-10" type="qcurve" />
      <point x="204" y="-10" />
      <point x="120" y="13" />
      <point x="93" y="35" type="qcurve" />
      <point x="80" y="46" />
      <point x="65" y="81" />
      <point x="65" y="97" type="qcurve" />
      <point x="65" y="114" />
      <point x="94" y="144" />
      <point x="121" y="144" type="qcurve" />
      <point x="139" y="144" />
      <point x="166" y="125" type="qcurve" />
      <point x="182" y="115" />
      <point x="220" y="99" />
      <point x="240" y="99" type="qcurve" />
      <point x="288" y="99" />
      <point x="358" y="134" />
      <point x="396" y="196" />
      <point x="396" y="238" type="qcurve" />
      <point x="396" y="276" />
      <point x="361" y="330" />
      <point x="304" y="360" />
      <point x="271" y="360" type="qcurve" />
      <point x="240" y="360" />
      <point x="194" y="340" />
      <point x="156" y="319" />
      <point x="137" y="319" type="qcurve" />
      <point x="104" y="319" />
      <point x="72" y="348" />
      <point x="64" y="388" />
      <point x="66" y="404" type="qcurve" />
      <point x="97" y="647" type="line" />
      <point x="101" y="668" />
      <point x="134" y="695" />
      <point x="157" y="695" type="qcurve" />
      <point x="446" y="695" type="line" />
      <point x="470" y="695" />
      <point x="502" y="663" />
      <point x="502" y="639" type="qcurve" />
      <point x="502" y="616" />
      <point x="470" y="585" />
      <point x="446" y="585" type="qcurve" />
      <point x="188" y="585" type="line" />
      <point x="199" y="594" type="line" />
      <point x="172" y="391" type="line" />
      <point x="159" y="429" type="line" />
      <point x="165" y="439" />
      <point x="205" y="457" />
      <point x="257" y="470" />
      <point x="282" y="470" type="qcurve" />
      <point x="349" y="470" />
      <point x="455" y="409" />
      <point x="516" y="304" />
      <point x="516" y="238" type="qcurve" />
      <point x="516" y="163" />
      <point x="448" y="51" />
      <point x="325" y="-10" />
    </contour>
  </outline>
</glyph>
<glyph name="six" format="2">
  <unicode hex="0036" />
  <advance width="553" />
  <outline>
    <contour>
      <point x="285" y="-10" type="qcurve" />
      <point x="231" y="-10" />
      <point x="144" y="35" />
      <point x="83" y="113" />
      <point x="50" y="211" />
      <point x="50" y="263" type="qcurve" />
      <point x="50" y="297" />
      <point x="65" y="393" />
      <point x="103" y="499" />
      <point x="171" y="599" />
      <point x="276" y="679" />
      <point x="352" y="700" type="qcurve" />
      <point x="364" y="703" />
      <point x="375" y="703" type="qcurve" />
      <point x="398" y="703" />
      <point x="435" y="679" />
      <point x="435" y="647" type="qcurve" />
      <point x="435" y="625" />
      <point x="406" y="592" />
      <point x="382" y="585" type="qcurve" />
      <point x="348" y="575" />
      <point x="281" y="536" />
      <point x="224" y="480" />
      <point x="183" y="409" />
      <point x="174" y="368" type="qcurve" />
      <point x="147" y="369" type="line" />
      <point x="161" y="386" />
      <point x="202" y="425" />
      <point x="261" y="454" />
      <point x="301" y="454" type="qcurve" />
      <point x="340" y="454" />
      <point x="417" y="418" />
      <point x="480" y="355" />
      <point x="518" y="270" />
      <point x="518" y="222" type="qcurve" />
      <point x="518" y="158" />
      <point x="455" y="52" />
      <point x="350" y="-10" />
    </contour>
    <contour>
      <point x="285" y="100" type="qcurve" />
      <point x="317" y="100" />
      <point x="368" y="132" />
      <point x="398" y="188" />
      <point x="398" y="222" type="qcurve" />
      <point x="398" y="257" />
      <point x="368" y="312" />
      <point x="317" y="344" />
      <point x="285" y="344" type="qcurve" />
      <point x="253" y="344" />
      <point x="202" y="312" />
      <point x="172" y="257" />
      <point x="172" y="222" type="qcurve" />
      <point x="172" y="188" />
      <point x="202" y="132" />
      <point x="253" y="100" />
    </contour>
  </outline>
</glyph>
<glyph name="seven" format="2">
  <unicode hex="0037" />
  <advance width="549" />
  <outline>
    <contour>
      <point x="200" y="-5" type="qcurve" />
      <point x="175" y="-5" />
      <point x="138" y="28" />
      <point x="138" y="53" type="qcurve" />
      <point x="138" y="67" />
      <point x="144" y="80" type="qcurve" />
      <point x="389" y="611" type="line" />
      <point x="400" y="584" type="line" />
      <point x="111" y="584" type="line" />
      <point x="87" y="584" />
      <point x="55" y="616" />
      <point x="55" y="640" type="qcurve" />
      <point x="55" y="663" />
      <point x="87" y="694" />
      <point x="111" y="694" type="qcurve" />
      <point x="459" y="694" type="line" />
      <point x="485" y="694" />
      <point x="524" y="661" />
      <point x="524" y="635" type="qcurve" />
      <point x="524" y="622" />
      <point x="518" y="608" type="qcurve" />
      <point x="255" y="33" type="line" />
      <point x="248" y="15" />
      <point x="217" y="-5" />
    </contour>
  </outline>
</glyph>
<glyph name="eight" format="2">
  <unicode hex="0038" />
  <advance width="548" />
  <outline>
    <contour>
      <point x="386" y="355" type="qcurve" />
      <point x="384" y="378" type="line" />
      <point x="422" y="361" />
      <point x="478" y="307" />
      <point x="508" y="243" />
      <point x="508" y="209" type="qcurve" />
      <point x="508" y="152" />
      <point x="445" y="57" />
      <point x="339" y="0" />
      <point x="274" y="0" type="qcurve" />
      <point x="209" y="0" />
      <point x="103" y="57" />
      <point x="40" y="152" />
      <point x="40" y="209" type="qcurve" />
      <point x="40" y="255" />
      <point x="79" y="322" />
      <point x="138" y="368" />
      <point x="167" y="383" type="qcurve" />
      <point x="159" y="355" type="line" />
      <point x="134" y="365" />
      <point x="87" y="402" />
      <point x="57" y="460" />
      <point x="57" y="499" type="qcurve" />
      <point x="57" y="555" />
      <point x="115" y="646" />
      <point x="214" y="700" />
      <point x="274" y="700" type="qcurve" />
      <point x="335" y="700" />
      <point x="432" y="646" />
      <point x="490" y="555" />
      <point x="490" y="499" type="qcurve" />
      <point x="490" y="456" />
      <point x="456" y="398" />
      <point x="408" y="364" />
    </contour>
    <contour>
      <point x="177" y="497" type="qcurve" />
      <point x="177" y="470" />
      <point x="202" y="428" />
      <point x="246" y="403" />
      <point x="274" y="403" type="qcurve" />
      <point x="302" y="403" />
      <point x="345" y="428" />
      <point x="370" y="470" />
      <point x="370" y="497" type="qcurve" />
      <point x="370" y="537" />
      <point x="315" y="590" />
      <point x="274" y="590" type="qcurve" />
      <point x="232" y="590" />
      <point x="177" y="537" />
    </contour>
    <contour>
      <point x="274" y="110" type="qcurve" />
      <point x="322" y="110" />
      <point x="388" y="169" />
      <point x="388" y="211" type="qcurve" />
      <point x="388" y="240" />
      <point x="358" y="286" />
      <point x="306" y="313" />
      <point x="274" y="313" type="qcurve" />
      <point x="242" y="313" />
      <point x="190" y="286" />
      <point x="160" y="240" />
      <point x="160" y="211" type="qcurve" />
      <point x="160" y="169" />
      <point x="226" y="110" />
    </contour>
  </outline>
</glyph>
<glyph name="nine" format="2">
  <unicode hex="0039" />
  <advance width="568" />
  <outline>
    <contour>
      <point x="283" y="713" type="qcurve" />
      <point x="337" y="713" />
      <point x="424" y="668" />
      <point x="485" y="590" />
      <point x="518" y="493" />
      <point x="518" y="440" type="qcurve" />
      <point x="518" y="406" />
      <point x="503" y="308" />
      <point x="465" y="199" />
      <point x="397" y="96" />
      <point x="292" y="14" />
      <point x="216" y="-7" type="qcurve" />
      <point x="204" y="-10" />
      <point x="193" y="-10" type="qcurve" />
      <point x="170" y="-10" />
      <point x="133" y="15" />
      <point x="133" y="46" type="qcurve" />
      <point x="133" y="69" />
      <point x="162" y="101" />
      <point x="186" y="108" type="qcurve" />
      <point x="232" y="122" />
      <point x="319" y="187" />
      <point x="383" y="280" />
      <point x="394" y="335" type="qcurve" />
      <point x="421" y="334" type="line" />
      <point x="408" y="318" />
      <point x="367" y="278" />
      <point x="308" y="249" />
      <point x="267" y="249" type="qcurve" />
      <point x="201" y="249" />
      <point x="104" y="306" />
      <point x="50" y="411" />
      <point x="50" y="481" type="qcurve" />
      <point x="50" y="544" />
      <point x="113" y="650" />
      <point x="219" y="713" />
    </contour>
    <contour>
      <point x="283" y="603" type="qcurve" />
      <point x="251" y="603" />
      <point x="200" y="570" />
      <point x="170" y="515" />
      <point x="170" y="481" type="qcurve" />
      <point x="170" y="444" />
      <point x="198" y="389" />
      <point x="249" y="359" />
      <point x="283" y="359" type="qcurve" />
      <point x="315" y="359" />
      <point x="366" y="391" />
      <point x="396" y="447" />
      <point x="396" y="481" type="qcurve" />
      <point x="396" y="516" />
      <point x="366" y="571" />
      <point x="315" y="603" />
    </contour>
  </outline>
</glyph>
<glyph name="colon" format="2">
  <unicode hex="003A" />
  <advance width="273" />
  <outline>
    <contour>
      <point x="130" y="391" type="line" />
      <point x="101" y="391" />
      <point x="70" y="422" />
      <point x="70" y="451" type="qcurve" />
      <point x="70" y="468" type="line" />
      <point x="70" y="497" />
      <point x="101" y="528" />
      <point x="130" y="528" type="qcurve" />
      <point x="143" y="528" type="line" />
      <point x="172" y="528" />
      <point x="203" y="497" />
      <point x="203" y="468" type="qcurve" />
      <point x="203" y="451" type="line" />
      <point x="203" y="422" />
      <point x="172" y="391" />
      <point x="143" y="391" type="qcurve" />
    </contour>
    <contour>
      <point x="130" y="0" type="line" />
      <point x="101" y="0" />
      <point x="70" y="31" />
      <point x="70" y="60" type="qcurve" />
      <point x="70" y="77" type="line" />
      <point x="70" y="106" />
      <point x="101" y="137" />
      <point x="130" y="137" type="qcurve" />
      <point x="143" y="137" type="line" />
      <point x="172" y="137" />
      <point x="203" y="106" />
      <point x="203" y="77" type="qcurve" />
      <point x="203" y="60" type="line" />
      <point x="203" y="31" />
      <point x="172" y="0" />
      <point x="143" y="0" type="qcurve" />
    </contour>
  </outline>
</glyph>
<glyph name="semicolon" format="2">
  <unicode hex="003B" />
  <advance width="294" />
  <outline>
    <contour>
      <point x="156" y="391" type="line" />
      <point x="127" y="391" />
      <point x="96" y="422" />
      <point x="96" y="451" type="qcurve" />
      <point x="96" y="468" type="line" />
      <point x="96" y="497" />
      <point x="127" y="528" />
      <point x="156" y="528" type="qcurve" />
      <point x="169" y="528" type="line" />
      <point x="198" y="528" />
      <point x="229" y="497" />
      <point x="229" y="468" type="qcurve" />
      <point x="229" y="451" type="line" />
      <point x="229" y="422" />
      <point x="198" y="391" />
      <point x="169" y="391" type="qcurve" />
    </contour>
    <contour>
      <point x="249" y="8" type="qcurve" />
      <point x="249" y="-25" />
      <point x="212" y="-92" />
      <point x="153" y="-137" />
      <point x="120" y="-137" type="qcurve" />
      <point x="109" y="-137" />
      <point x="84" y="-119" />
      <point x="84" y="-97" type="qcurve" />
      <point x="84" y="-74" />
      <point x="113" y="-65" />
      <point x="123" y="-60" type="qcurve" />
      <point x="136" y="-53" />
      <point x="151" y="-34" />
      <point x="151" y="-20" type="qcurve" />
      <point x="151" y="-9" />
      <point x="130" y="8" />
      <point x="113" y="8" type="qcurve" />
      <point x="107" y="8" />
      <point x="91" y="5" />
      <point x="85" y="1" type="qcurve" />
      <point x="75" y="6" />
      <point x="60" y="21" />
      <point x="60" y="38" type="qcurve" />
      <point x="60" y="69" />
      <point x="117" y="114" />
      <point x="155" y="114" type="qcurve" />
      <point x="198" y="114" />
      <point x="249" y="56" />
    </contour>
  </outline>
</glyph>
<glyph name="less" format="2">
  <unicode hex="003C" />
  <advance width="525" />
  <outline>
    <contour>
      <point x="424" y="72" type="qcurve" />
      <point x="413" y="72" />
      <point x="388" y="85" />
      <point x="374" y="93" type="qcurve" />
      <point x="49" y="284" type="line" />
      <point x="37" y="292" />
      <point x="25" y="317" />
      <point x="25" y="330" type="qcurve" />
      <point x="25" y="344" />
      <point x="37" y="369" />
      <point x="49" y="376" type="qcurve" />
      <point x="374" y="563" type="line" />
      <point x="387" y="571" />
      <point x="410" y="580" />
      <point x="420" y="580" type="qcurve" />
      <point x="440" y="580" />
      <point x="475" y="541" />
      <point x="475" y="520" type="qcurve" />
      <point x="475" y="510" />
      <point x="464" y="491" />
      <point x="453" y="484" type="qcurve" />
      <point x="106" y="283" type="line" />
      <point x="99" y="383" type="line" />
      <point x="452" y="172" type="line" />
      <point x="464" y="165" />
      <point x="474" y="144" />
      <point x="474" y="133" type="qcurve" />
      <point x="474" y="109" />
      <point x="441" y="72" />
    </contour>
  </outline>
</glyph>
<glyph name="equal" format="2">
  <unicode hex="003D" />
  <advance width="619" />
  <outline>
    <contour>
      <point x="109" y="372" type="line" />
      <point x="84" y="372" />
      <point x="50" y="405" />
      <point x="50" y="428" type="qcurve" />
      <point x="50" y="451" />
      <point x="84" y="482" />
      <point x="109" y="482" type="qcurve" />
      <point x="510" y="482" type="line" />
      <point x="536" y="482" />
      <point x="569" y="451" />
      <point x="569" y="428" type="qcurve" />
      <point x="569" y="405" />
      <point x="536" y="372" />
      <point x="510" y="372" type="qcurve" />
    </contour>
    <contour>
      <point x="109" y="178" type="line" />
      <point x="84" y="178" />
      <point x="50" y="211" />
      <point x="50" y="234" type="qcurve" />
      <point x="50" y="257" />
      <point x="84" y="288" />
      <point x="109" y="288" type="qcurve" />
      <point x="510" y="288" type="line" />
      <point x="536" y="288" />
      <point x="569" y="257" />
      <point x="569" y="234" type="qcurve" />
      <point x="569" y="211" />
      <point x="536" y="178" />
      <point x="510" y="178" type="qcurve" />
    </contour>
  </outline>
</glyph>
<glyph name="greater" format="2">
  <unicode hex="003E" />
  <advance width="525" />
  <outline>
    <contour>
      <point x="105" y="84" type="qcurve" />
      <point x="85" y="84" />
      <point x="50" y="123" />
      <point x="50" y="144" type="qcurve" />
      <point x="50" y="155" />
      <point x="61" y="173" />
      <point x="72" y="180" type="qcurve" />
      <point x="419" y="381" type="line" />
      <point x="426" y="281" type="line" />
      <point x="73" y="492" type="line" />
      <point x="61" y="499" />
      <point x="51" y="520" />
      <point x="51" y="531" type="qcurve" />
      <point x="51" y="555" />
      <point x="85" y="592" />
      <point x="101" y="592" type="qcurve" />
      <point x="112" y="592" />
      <point x="137" y="579" />
      <point x="151" y="571" type="qcurve" />
      <point x="476" y="380" type="line" />
      <point x="488" y="373" />
      <point x="500" y="348" />
      <point x="500" y="334" type="qcurve" />
      <point x="500" y="320" />
      <point x="488" y="295" />
      <point x="476" y="288" type="qcurve" />
      <point x="151" y="101" type="line" />
      <point x="138" y="94" />
      <point x="116" y="84" />
    </contour>
  </outline>
</glyph>
<glyph name="question" format="2">
  <unicode hex="003F" />
  <advance width="527" />
  <outline>
    <contour>
      <point x="156" y="316" type="line" />
      <point x="156" y="342" />
      <point x="190" y="377" />
      <point x="216" y="377" type="qcurve" />
      <point x="257" y="377" />
      <point x="323" y="402" />
      <point x="362" y="458" />
      <point x="362" y="504" type="qcurve" />
      <point x="362" y="538" />
      <point x="329" y="590" />
      <point x="272" y="620" />
      <point x="236" y="620" type="qcurve" />
      <point x="208" y="620" />
      <point x="159" y="600" />
      <point x="139" y="583" type="qcurve" />
      <point x="123" y="569" />
      <point x="78" y="556" />
      <point x="55" y="573" type="qcurve" />
      <point x="31" y="591" />
      <point x="27" y="641" />
      <point x="48" y="662" type="qcurve" />
      <point x="84" y="699" />
      <point x="181" y="740" />
      <point x="236" y="740" type="qcurve" />
      <point x="305" y="740" />
      <point x="416" y="677" />
      <point x="482" y="571" />
      <point x="482" y="504" type="qcurve" />
      <point x="482" y="454" />
      <point x="452" y="377" />
      <point x="397" y="322" />
      <point x="324" y="289" />
      <point x="281" y="282" type="qcurve" />
      <point x="279" y="281" />
      <point x="276" y="279" />
      <point x="276" y="277" type="qcurve" />
      <point x="276" y="240" type="line" />
      <point x="276" y="214" />
      <point x="242" y="179" />
      <point x="216" y="179" type="qcurve" />
      <point x="190" y="179" />
      <point x="156" y="214" />
      <point x="156" y="240" type="qcurve" />
    </contour>
    <contour>
      <point x="211" y="0" type="line" />
      <point x="182" y="0" />
      <point x="151" y="31" />
      <point x="151" y="60" type="qcurve" />
      <point x="151" y="77" type="line" />
      <point x="151" y="106" />
      <point x="182" y="137" />
      <point x="211" y="137" type="qcurve" />
      <point x="224" y="137" type="line" />
      <point x="253" y="137" />
      <point x="284" y="106" />
      <point x="284" y="77" type="qcurve" />
      <point x="284" y="60" type="line" />
      <point x="284" y="31" />
      <point x="253" y="0" />
      <point x="224" y="0" type="qcurve" />
    </contour>
  </outline>
</glyph>
<glyph name="at" format="2">
  <unicode hex="0040" />
  <advance width="964" />
  <outline>
    <contour>
      <point x="657" y="55" type="qcurve" />
      <point x="624" y="55" />
      <point x="566" y="86" />
      <point x="536" y="142" />
      <point x="542" y="177" type="qcurve" />
      <point x="550" y="222" type="line" />
      <point x="564" y="190" type="line" />
      <point x="549" y="136" />
      <point x="494" y="77" />
      <point x="428" y="55" />
      <point x="395" y="55" type="qcurve" />
      <point x="358" y="55" />
      <point x="289" y="95" />
      <point x="246" y="169" />
      <point x="246" y="220" type="qcurve" />
      <point x="246" y="267" />
      <point x="283" y="368" />
      <point x="348" y="456" />
      <point x="435" y="510" />
      <point x="485" y="510" type="qcurve" />
      <point x="528" y="510" />
      <point x="594" y="450" />
      <point x="598" y="396" type="qcurve" />
      <point x="571" y="331" type="line" />
      <point x="592" y="467" type="line" />
      <point x="594" y="481" />
      <point x="620" y="507" />
      <point x="647" y="507" type="qcurve" />
      <point x="682" y="507" />
      <point x="705" y="476" />
      <point x="700" y="448" type="qcurve" />
      <point x="660" y="196" type="line" />
      <point x="655" y="162" />
      <point x="681" y="132" />
      <point x="700" y="132" type="qcurve" />
      <point x="730" y="132" />
      <point x="783" y="178" />
      <point x="822" y="254" />
      <point x="845" y="348" />
      <point x="845" y="396" type="qcurve" />
      <point x="845" y="466" />
      <point x="779" y="572" />
      <point x="658" y="632" />
      <point x="576" y="632" type="qcurve" />
      <point x="480" y="632" />
      <point x="315" y="575" />
      <point x="190" y="465" />
      <point x="120" y="307" />
      <point x="120" y="206" type="qcurve" />
      <point x="120" y="152" />
      <point x="153" y="49" />
      <point x="223" y="-35" />
      <point x="335" y="-84" />
      <point x="414" y="-84" type="qcurve" />
      <point x="469" y="-84" />
      <point x="547" y="-69" />
      <point x="609" y="-42" />
      <point x="639" y="-25" type="qcurve" />
      <point x="656" y="-15" />
      <point x="682" y="-28" />
      <point x="688" y="-44" type="qcurve" />
      <point x="700" y="-74" />
      <point x="653" y="-98" type="qcurve" />
      <point x="610" y="-120" />
      <point x="498" y="-162" />
      <point x="414" y="-162" type="qcurve" />
      <point x="313" y="-162" />
      <point x="171" y="-99" />
      <point x="82" y="7" />
      <point x="40" y="138" />
      <point x="40" y="206" type="qcurve" />
      <point x="40" y="323" />
      <point x="123" y="509" />
      <point x="270" y="641" />
      <point x="464" y="710" />
      <point x="576" y="710" type="qcurve" />
      <point x="690" y="710" />
      <point x="846" y="625" />
      <point x="925" y="482" />
      <point x="925" y="396" type="qcurve" />
      <point x="925" y="335" />
      <point x="889" y="214" />
      <point x="819" y="115" />
      <point x="720" y="55" />
    </contour>
    <contour>
      <point x="426" y="145" type="qcurve" />
      <point x="452" y="145" />
      <point x="495" y="170" />
      <point x="527" y="207" />
      <point x="549" y="248" />
      <point x="553" y="263" type="qcurve" />
      <point x="574" y="325" />
      <point x="563" y="393" />
      <point x="519" y="420" />
      <point x="490" y="420" type="qcurve" />
      <point x="460" y="420" />
      <point x="411" y="382" />
      <point x="376" y="322" />
      <point x="358" y="253" />
      <point x="358" y="222" type="qcurve" />
      <point x="358" y="184" />
      <point x="395" y="145" />
    </contour>
  </outline>
</glyph>
<glyph name="A" format="2">
  <unicode hex="0041" />
  <advance width="639" />
  <outline>
    <contour>
      <point x="332" y="543" type="line" />
      <point x="116" y="35" type="line" />
      <point x="109" y="16" />
      <point x="80" y="-5" />
      <point x="63" y="-5" type="qcurve" />
      <point x="36" y="-5" />
      <point x="10" y="25" />
      <point x="10" y="47" type="qcurve" />
      <point x="10" y="56" />
      <point x="13" y="66" type="qcurve" />
      <point x="262" y="664" type="line" />
      <point x="270" y="684" />
      <point x="303" y="706" />
      <point x="322" y="704" type="qcurve" />
      <point x="340" y="704" />
      <point x="371" y="683" />
      <point x="378" y="664" type="qcurve" />
      <point x="624" y="78" type="line" />
      <point x="629" y="65" />
      <point x="629" y="54" type="qcurve" />
      <point x="629" y="27" />
      <point x="594" y="-5" />
      <point x="573" y="-5" type="qcurve" />
      <point x="555" y="-5" />
      <point x="526" y="17" />
      <point x="518" y="36" type="qcurve" />
      <point x="303" y="537" type="line" />
    </contour>
    <contour>
      <point x="147" y="157" type="line" />
      <point x="202" y="272" type="line" />
      <point x="472" y="272" type="line" />
      <point x="491" y="157" type="line" />
    </contour>
  </outline>
</glyph>
<glyph name="B" format="2">
  <unicode hex="0042" />
  <advance width="655" />
  <outline>
    <contour>
      <point x="388" y="700" type="line" />
      <point x="484" y="700" />
      <point x="578" y="610" />
      <point x="578" y="522" type="qcurve" />
      <point x="578" y="475" />
      <point x="532" y="404" />
      <point x="442" y="365" />
      <point x="376" y="365" type="qcurve" />
      <point x="380" y="410" type="line" />
      <point x="411" y="410" />
      <point x="491" y="393" />
      <point x="566" y="350" />
      <point x="615" y="273" />
      <point x="615" y="213" type="qcurve" />
      <point x="615" y="147" />
      <point x="572" y="63" />
      <point x="502" y="17" />
      <point x="422" y="0" />
      <point x="385" y="0" type="qcurve" />
      <point x="136" y="0" type="line" />
      <point x="110" y="0" />
      <point x="75" y="35" />
      <point x="75" y="61" type="qcurve" />
      <point x="75" y="639" type="line" />
      <point x="75" y="665" />
      <point x="110" y="700" />
      <point x="136" y="700" type="qcurve" />
    </contour>
    <contour>
      <point x="370" y="582" type="qcurve" />
      <point x="205" y="582" type="line" />
      <point x="205" y="426" type="line" />
      <point x="373" y="426" type="line" />
      <point x="402" y="426" />
      <point x="448" y="464" />
      <point x="448" y="500" type="qcurve" />
      <point x="448" y="543" />
      <point x="405" y="582" />
    </contour>
    <contour>
      <point x="378" y="308" type="qcurve" />
      <point x="205" y="308" type="line" />
      <point x="205" y="105" type="line" />
      <point x="195" y="115" type="line" />
      <point x="385" y="115" type="line" />
      <point x="431" y="115" />
      <point x="485" y="164" />
      <point x="485" y="213" type="qcurve" />
      <point x="485" y="258" />
      <point x="449" y="298" />
      <point x="399" y="308" />
    </contour>
  </outline>
</glyph>
<glyph name="C" format="2">
  <unicode hex="0043" />
  <advance width="627" />
  <outline>
    <contour>
      <point x="565" y="666" type="qcurve" />
      <point x="591" y="653" />
      <point x="600" y="597" />
      <point x="581" y="574" type="qcurve" />
      <point x="568" y="556" />
      <point x="527" y="552" />
      <point x="506" y="562" type="qcurve" />
      <point x="482" y="573" />
      <point x="429" y="585" />
      <point x="400" y="585" type="qcurve" />
      <point x="346" y="585" />
      <point x="261" y="551" />
      <point x="201" y="488" />
      <point x="170" y="402" />
      <point x="170" y="350" type="qcurve" />
      <point x="170" y="289" />
      <point x="205" y="199" />
      <point x="267" y="139" />
      <point x="351" y="110" />
      <point x="400" y="110" type="qcurve" />
      <point x="427" y="110" />
      <point x="481" y="120" />
      <point x="506" y="133" type="qcurve" />
      <point x="527" y="143" />
      <point x="568" y="137" />
      <point x="582" y="119" type="qcurve" />
      <point x="602" y="94" />
      <point x="591" y="41" />
      <point x="566" y="29" type="qcurve" />
      <point x="540" y="16" />
      <point x="485" y="-1" />
      <point x="429" y="-10" />
      <point x="400" y="-10" type="qcurve" />
      <point x="328" y="-10" />
      <point x="199" y="36" />
      <point x="98" y="126" />
      <point x="40" y="261" />
      <point x="40" y="350" type="qcurve" />
      <point x="40" y="427" />
      <point x="93" y="557" />
      <point x="190" y="652" />
      <point x="322" y="705" />
      <point x="400" y="705" type="qcurve" />
      <point x="444" y="705" />
      <point x="528" y="685" />
    </contour>
  </outline>
</glyph>
<glyph name="D" format="2">
  <unicode hex="0044" />
  <advance width="715" />
  <outline>
    <contour>
      <point x="375" y="700" type="line" />
      <point x="447" y="700" />
      <point x="559" y="646" />
      <point x="636" y="549" />
      <point x="675" y="422" />
      <point x="675" y="350" type="qcurve" />
      <point x="675" y="253" />
      <point x="605" y="94" />
      <point x="472" y="0" />
      <point x="375" y="0" type="qcurve" />
      <point x="136" y="0" type="line" />
      <point x="110" y="0" />
      <point x="75" y="35" />
      <point x="75" y="61" type="qcurve" />
      <point x="75" y="639" type="line" />
      <point x="75" y="665" />
      <point x="110" y="700" />
      <point x="136" y="700" type="qcurve" />
    </contour>
    <contour>
      <point x="365" y="115" type="line" />
      <point x="428" y="115" />
      <point x="508" y="180" />
      <point x="545" y="287" />
      <point x="545" y="350" type="qcurve" />
      <point x="545" y="397" />
      <point x="524" y="482" />
      <point x="480" y="547" />
      <point x="412" y="585" />
      <point x="365" y="585" type="qcurve" />
      <point x="200" y="585" type="line" />
      <point x="200" y="104" type="line" />
      <point x="194" y="115" type="line" />
    </contour>
  </outline>
</glyph>
<glyph name="E" format="2">
  <unicode hex="0045" />
  <advance width="572" />
  <outline>
    <contour>
      <point x="136" y="700" type="qcurve" />
      <point x="471" y="700" type="line" />
      <point x="497" y="700" />
      <point x="532" y="667" />
      <point x="532" y="641" type="qcurve" />
      <point x="532" y="616" />
      <point x="497" y="585" />
      <point x="471" y="585" type="qcurve" />
      <point x="191" y="585" type="line" />
      <point x="200" y="602" type="line" />
      <point x="200" y="407" type="line" />
      <point x="192" y="415" type="line" />
      <point x="426" y="415" type="line" />
      <point x="452" y="415" />
      <point x="487" y="382" />
      <point x="487" y="356" type="qcurve" />
      <point x="487" y="331" />
      <point x="452" y="300" />
      <point x="426" y="300" type="qcurve" />
      <point x="195" y="300" type="line" />
      <point x="200" y="308" type="line" />
      <point x="200" y="106" type="line" />
      <point x="192" y="115" type="line" />
      <point x="471" y="115" type="line" />
      <point x="497" y="115" />
      <point x="532" y="80" />
      <point x="532" y="57" type="qcurve" />
      <point x="532" y="32" />
      <point x="497" y="0" />
      <point x="471" y="0" type="qcurve" />
      <point x="136" y="0" type="line" />
      <point x="110" y="0" />
      <point x="75" y="35" />
      <point x="75" y="61" type="qcurve" />
      <point x="75" y="639" type="line" />
      <point x="75" y="665" />
      <point x="110" y="700" />
    </contour>
  </outline>
</glyph>
<glyph name="F" format="2">
  <unicode hex="0046" />
  <advance width="562" />
  <outline>
    <contour>
      <point x="138" y="0" type="qcurve" />
      <point x="110" y="0" />
      <point x="75" y="35" />
      <point x="75" y="61" type="qcurve" />
      <point x="75" y="639" type="line" />
      <point x="75" y="665" />
      <point x="110" y="700" />
      <point x="136" y="700" type="qcurve" />
      <point x="461" y="700" type="line" />
      <point x="487" y="700" />
      <point x="522" y="667" />
      <point x="522" y="641" type="qcurve" />
      <point x="522" y="619" />
      <point x="487" y="585" />
      <point x="461" y="585" type="qcurve" />
      <point x="191" y="585" type="line" />
      <point x="200" y="597" type="line" />
      <point x="200" y="396" type="line" />
      <point x="193" y="409" type="line" />
      <point x="416" y="409" type="line" />
      <point x="442" y="409" />
      <point x="477" y="376" />
      <point x="477" y="350" type="qcurve" />
      <point x="477" y="328" />
      <point x="442" y="294" />
      <point x="416" y="294" type="qcurve" />
      <point x="191" y="294" type="line" />
      <point x="200" y="303" type="line" />
      <point x="200" y="61" type="line" />
      <point x="200" y="35" />
      <point x="163" y="0" />
    </contour>
  </outline>
</glyph>
<glyph name="G" format="2">
  <unicode hex="0047" />
  <advance width="696" />
  <outline>
    <contour>
      <point x="405" y="-10" type="qcurve" />
      <point x="329" y="-10" />
      <point x="197" y="46" />
      <point x="97" y="145" />
      <point x="40" y="275" />
      <point x="40" y="350" type="qcurve" />
      <point x="40" y="425" />
      <point x="97" y="555" />
      <point x="197" y="654" />
      <point x="329" y="710" />
      <point x="405" y="710" type="qcurve" />
      <point x="452" y="710" />
      <point x="540" y="690" />
      <point x="577" y="670" type="qcurve" />
      <point x="592" y="662" />
      <point x="607" y="635" />
      <point x="607" y="621" type="qcurve" />
      <point x="607" y="597" />
      <point x="575" y="559" />
      <point x="550" y="559" type="qcurve" />
      <point x="542" y="559" />
      <point x="525" y="563" />
      <point x="517" y="567" type="qcurve" />
      <point x="492" y="578" />
      <point x="436" y="590" />
      <point x="405" y="590" type="qcurve" />
      <point x="340" y="590" />
      <point x="233" y="525" />
      <point x="170" y="416" />
      <point x="170" y="350" type="qcurve" />
      <point x="170" y="285" />
      <point x="233" y="175" />
      <point x="340" y="110" />
      <point x="405" y="110" type="qcurve" />
      <point x="435" y="110" />
      <point x="507" y="122" />
      <point x="530" y="132" type="qcurve" />
      <point x="521" y="102" type="line" />
      <point x="521" y="273" type="line" />
      <point x="538" y="258" type="line" />
      <point x="427" y="258" type="line" />
      <point x="401" y="258" />
      <point x="366" y="292" />
      <point x="366" y="318" type="qcurve" />
      <point x="366" y="344" />
      <point x="401" y="378" />
      <point x="427" y="378" type="qcurve" />
      <point x="591" y="378" type="line" />
      <point x="617" y="378" />
      <point x="651" y="343" />
      <point x="651" y="317" type="qcurve" />
      <point x="651" y="105" type="line" />
      <point x="651" y="85" />
      <point x="632" y="59" />
      <point x="620" y="51" type="qcurve" />
      <point x="574" y="23" />
      <point x="465" y="-10" />
    </contour>
  </outline>
</glyph>
<glyph name="H" format="2">
  <unicode hex="0048" />
  <advance width="719" />
  <outline>
    <contour>
      <point x="200" y="254" type="qcurve" />
      <point x="200" y="61" type="line" />
      <point x="200" y="35" />
      <point x="162" y="0" />
      <point x="137" y="0" type="qcurve" />
      <point x="109" y="0" />
      <point x="75" y="35" />
      <point x="75" y="61" type="qcurve" />
      <point x="75" y="639" type="line" />
      <point x="75" y="665" />
      <point x="111" y="700" />
      <point x="139" y="700" type="qcurve" />
      <point x="163" y="700" />
      <point x="200" y="665" />
      <point x="200" y="639" type="qcurve" />
      <point x="200" y="458" type="line" />
      <point x="201" y="409" type="line" />
      <point x="582" y="409" type="line" />
      <point x="582" y="294" type="line" />
      <point x="200" y="294" type="line" />
      <point x="200" y="294" />
    </contour>
    <contour>
      <point x="582" y="700" type="qcurve" />
      <point x="610" y="700" />
      <point x="644" y="665" />
      <point x="644" y="639" type="qcurve" />
      <point x="644" y="61" type="line" />
      <point x="644" y="35" />
      <point x="609" y="0" />
      <point x="580" y="0" type="qcurve" />
      <point x="556" y="0" />
      <point x="519" y="35" />
      <point x="519" y="61" type="qcurve" />
      <point x="519" y="639" type="line" />
      <point x="519" y="665" />
      <point x="557" y="700" />
    </contour>
  </outline>
</glyph>
<glyph name="I" format="2">
  <unicode hex="0049" />
  <advance width="395" />
  <outline>
    <contour>
      <point x="90" y="0" type="line" />
      <point x="64" y="0" />
      <point x="29" y="34" />
      <point x="29" y="60" type="qcurve" />
      <point x="29" y="86" />
      <point x="64" y="119" />
      <point x="90" y="119" type="qcurve" />
      <point x="304" y="119" type="line" />
      <point x="329" y="119" />
      <point x="365" y="84" />
      <point x="365" y="58" type="qcurve" />
      <point x="365" y="33" />
      <point x="329" y="0" />
      <point x="304" y="0" type="qcurve" />
    </contour>
    <contour>
      <point x="90" y="581" type="line" />
      <point x="64" y="581" />
      <point x="29" y="615" />
      <point x="29" y="641" type="qcurve" />
      <point x="29" y="667" />
      <point x="64" y="700" />
      <point x="90" y="700" type="qcurve" />
      <point x="304" y="700" type="line" />
      <point x="329" y="700" />
      <point x="365" y="665" />
      <point x="365" y="639" type="qcurve" />
      <point x="365" y="614" />
      <point x="329" y="581" />
      <point x="304" y="581" type="qcurve" />
    </contour>
    <contour>
      <point x="260" y="81" type="line" />
      <point x="260" y="55" />
      <point x="222" y="20" />
      <point x="197" y="20" type="qcurve" />
      <point x="169" y="20" />
      <point x="135" y="55" />
      <point x="135" y="81" type="qcurve" />
      <point x="135" y="619" type="line" />
      <point x="135" y="645" />
      <point x="171" y="680" />
      <point x="199" y="680" type="qcurve" />
      <point x="223" y="680" />
      <point x="260" y="645" />
      <point x="260" y="619" type="qcurve" />
    </contour>
  </outline>
</glyph>
<glyph name="J" format="2">
  <unicode hex="004A" />
  <advance width="582" />
  <outline>
    <contour>
      <point x="492" y="581" type="qcurve" />
      <point x="407" y="581" type="line" />
      <point x="407" y="219" type="line" />
      <point x="407" y="158" />
      <point x="343" y="54" />
      <point x="235" y="-10" />
      <point x="188" y="-10" type="qcurve" />
      <point x="131" y="-10" />
      <point x="82" y="13" type="qcurve" />
      <point x="55" y="26" />
      <point x="47" y="41" type="qcurve" />
      <point x="34" y="63" />
      <point x="41" y="87" type="qcurve" />
      <point x="47" y="110" />
      <point x="68" y="122" type="qcurve" />
      <point x="77" y="126" />
      <point x="109" y="125" type="qcurve" />
      <point x="129" y="124" />
      <point x="144" y="118" type="qcurve" />
      <point x="164" y="110" />
      <point x="188" y="110" type="qcurve" />
      <point x="198" y="110" />
      <point x="250" y="140" />
      <point x="282" y="190" />
      <point x="282" y="219" type="qcurve" />
      <point x="282" y="581" type="line" />
      <point x="198" y="581" type="line" />
      <point x="172" y="581" />
      <point x="137" y="615" />
      <point x="137" y="641" type="qcurve" />
      <point x="137" y="667" />
      <point x="172" y="700" />
      <point x="198" y="700" type="qcurve" />
      <point x="492" y="700" type="line" />
      <point x="517" y="700" />
      <point x="553" y="665" />
      <point x="553" y="639" type="qcurve" />
      <point x="553" y="614" />
      <point x="517" y="581" />
    </contour>
  </outline>
</glyph>
<glyph name="K" format="2">
  <unicode hex="004B" />
  <advance width="655" />
  <outline>
    <contour>
      <point x="557" y="0" type="qcurve" />
      <point x="529" y="0" />
      <point x="512" y="23" type="qcurve" />
      <point x="164" y="327" type="line" />
      <point x="255" y="420" type="line" />
      <point x="611" y="104" type="line" />
      <point x="625" y="85" />
      <point x="625" y="63" type="qcurve" />
      <point x="625" y="35" />
      <point x="583" y="0" />
    </contour>
    <contour>
      <point x="569" y="705" type="qcurve" />
      <point x="593" y="705" />
      <point x="624" y="666" />
      <point x="624" y="646" type="qcurve" />
      <point x="624" y="625" />
      <point x="606" y="607" type="qcurve" />
      <point x="248" y="302" type="line" />
      <point x="187" y="330" type="line" />
      <point x="182" y="393" type="line" />
      <point x="520" y="682" type="line" />
      <point x="543" y="705" />
    </contour>
    <contour>
      <point x="137" y="0" type="qcurve" />
      <point x="109" y="0" />
      <point x="75" y="35" />
      <point x="75" y="61" type="qcurve" />
      <point x="75" y="639" type="line" />
      <point x="75" y="665" />
      <point x="111" y="700" />
      <point x="139" y="700" type="qcurve" />
      <point x="167" y="700" />
      <point x="200" y="665" />
      <point x="200" y="639" type="qcurve" />
      <point x="200" y="61" type="line" />
      <point x="200" y="35" />
      <point x="166" y="0" />
    </contour>
  </outline>
</glyph>
<glyph name="L" format="2">
  <unicode hex="004C" />
  <advance width="562" />
  <outline>
    <contour>
      <point x="461" y="117" type="line" />
      <point x="487" y="117" />
      <point x="522" y="84" />
      <point x="522" y="58" type="qcurve" />
      <point x="522" y="33" />
      <point x="487" y="0" />
      <point x="461" y="0" type="qcurve" />
      <point x="136" y="0" type="line" />
      <point x="110" y="0" />
      <point x="75" y="35" />
      <point x="75" y="61" type="qcurve" />
      <point x="75" y="639" type="line" />
      <point x="75" y="665" />
      <point x="111" y="700" />
      <point x="139" y="700" type="qcurve" />
      <point x="163" y="700" />
      <point x="200" y="665" />
      <point x="200" y="639" type="qcurve" />
      <point x="200" y="100" type="line" />
      <point x="178" y="117" type="line" />
    </contour>
  </outline>
</glyph>
<glyph name="M" format="2">
  <unicode hex="004D" />
  <advance width="819" />
  <outline>
    <contour>
      <point x="138" y="701" type="qcurve" />
      <point x="152" y="701" />
      <point x="183" y="686" />
      <point x="191" y="674" type="qcurve" />
      <point x="434" y="300" type="line" />
      <point x="384" y="302" type="line" />
      <point x="633" y="674" type="line" />
      <point x="652" y="701" />
      <point x="682" y="701" type="qcurve" />
      <point x="706" y="701" />
      <point x="744" y="667" />
      <point x="744" y="640" type="qcurve" />
      <point x="744" y="61" type="line" />
      <point x="744" y="35" />
      <point x="710" y="0" />
      <point x="682" y="0" type="qcurve" />
      <point x="654" y="0" />
      <point x="619" y="35" />
      <point x="619" y="61" type="qcurve" />
      <point x="619" y="532" type="line" />
      <point x="658" y="523" type="line" />
      <point x="454" y="212" type="line" />
      <point x="445" y="201" />
      <point x="418" y="185" />
      <point x="404" y="186" type="qcurve" />
      <point x="391" y="185" />
      <point x="364" y="201" />
      <point x="355" y="212" type="qcurve" />
      <point x="164" y="514" type="line" />
      <point x="190" y="567" type="line" />
      <point x="190" y="61" type="line" />
      <point x="190" y="35" />
      <point x="158" y="0" />
      <point x="132" y="0" type="qcurve" />
      <point x="107" y="0" />
      <point x="75" y="35" />
      <point x="75" y="61" type="qcurve" />
      <point x="75" y="640" type="line" />
      <point x="75" y="665" />
      <point x="112" y="701" />
    </contour>
  </outline>
</glyph>
<glyph name="N" format="2">
  <unicode hex="004E" />
  <advance width="735" />
  <outline>
    <contour>
      <point x="606" y="700" type="qcurve" />
      <point x="630" y="700" />
      <point x="660" y="668" />
      <point x="660" y="644" type="qcurve" />
      <point x="660" y="61" type="line" />
      <point x="660" y="35" />
      <point x="625" y="0" />
      <point x="599" y="0" type="qcurve" />
      <point x="586" y="0" />
      <point x="559" y="9" />
      <point x="552" y="17" type="qcurve" />
      <point x="159" y="516" type="line" />
      <point x="185" y="532" type="line" />
      <point x="185" y="56" type="line" />
      <point x="185" y="32" />
      <point x="154" y="0" />
      <point x="129" y="0" type="qcurve" />
      <point x="105" y="0" />
      <point x="75" y="32" />
      <point x="75" y="56" type="qcurve" />
      <point x="75" y="639" type="line" />
      <point x="75" y="665" />
      <point x="110" y="700" />
      <point x="136" y="700" type="qcurve" />
      <point x="150" y="700" />
      <point x="180" y="689" />
      <point x="187" y="678" type="qcurve" />
      <point x="568" y="192" type="line" />
      <point x="551" y="180" type="line" />
      <point x="551" y="644" type="line" />
      <point x="551" y="668" />
      <point x="581" y="700" />
    </contour>
  </outline>
</glyph>
<glyph name="O" format="2">
  <unicode hex="004F" />
  <advance width="679" />
  <outline>
    <contour>
      <point x="649" y="350" type="qcurve" />
      <point x="649" y="275" />
      <point x="599" y="145" />
      <point x="518" y="46" />
      <point x="403" y="-10" />
      <point x="339" y="-10" type="qcurve" />
      <point x="275" y="-10" />
      <point x="161" y="46" />
      <point x="80" y="145" />
      <point x="30" y="275" />
      <point x="30" y="350" type="qcurve" />
      <point x="30" y="425" />
      <point x="80" y="555" />
      <point x="161" y="654" />
      <point x="275" y="710" />
      <point x="339" y="710" type="qcurve" />
      <point x="403" y="710" />
      <point x="518" y="654" />
      <point x="599" y="555" />
      <point x="649" y="425" />
    </contour>
    <contour>
      <point x="519" y="350" type="qcurve" />
      <point x="519" y="417" />
      <point x="475" y="526" />
      <point x="391" y="590" />
      <point x="339" y="590" type="qcurve" />
      <point x="287" y="590" />
      <point x="203" y="526" />
      <point x="160" y="418" />
      <point x="160" y="350" type="qcurve" />
      <point x="160" y="283" />
      <point x="203" y="174" />
      <point x="287" y="110" />
      <point x="339" y="110" type="qcurve" />
      <point x="391" y="110" />
      <point x="475" y="174" />
      <point x="519" y="283" />
    </contour>
  </outline>
</glyph>
<glyph name="P" format="2">
  <unicode hex="0050" />
  <advance width="603" />
  <outline>
    <contour>
      <point x="364" y="700" type="line" />
      <point x="416" y="700" />
      <point x="507" y="640" />
      <point x="563" y="538" />
      <point x="563" y="475" type="qcurve" />
      <point x="563" y="413" />
      <point x="507" y="311" />
      <point x="416" y="250" />
      <point x="364" y="250" type="qcurve" />
      <point x="180" y="250" type="line" />
      <point x="190" y="268" type="line" />
      <point x="190" y="61" type="line" />
      <point x="190" y="35" />
      <point x="158" y="0" />
      <point x="132" y="0" type="qcurve" />
      <point x="107" y="0" />
      <point x="75" y="35" />
      <point x="75" y="61" type="qcurve" />
      <point x="75" y="639" type="line" />
      <point x="75" y="665" />
      <point x="110" y="700" />
      <point x="136" y="700" type="qcurve" />
    </contour>
    <contour>
      <point x="364" y="364" type="line" />
      <point x="383" y="364" />
      <point x="419" y="396" />
      <point x="443" y="447" />
      <point x="443" y="475" type="qcurve" />
      <point x="443" y="504" />
      <point x="419" y="554" />
      <point x="383" y="585" />
      <point x="364" y="585" type="qcurve" />
      <point x="190" y="585" type="line" />
      <point x="190" y="348" type="line" />
      <point x="179" y="364" type="line" />
    </contour>
  </outline>
</glyph>
<glyph name="Q" format="2">
  <unicode hex="0051" />
  <advance width="702" />
  <outline>
    <contour>
      <point x="649" y="350" type="qcurve" />
      <point x="649" y="275" />
      <point x="599" y="145" />
      <point x="518" y="46" />
      <point x="403" y="-10" />
      <point x="339" y="-10" type="qcurve" />
      <point x="275" y="-10" />
      <point x="161" y="46" />
      <point x="80" y="145" />
      <point x="30" y="275" />
      <point x="30" y="350" type="qcurve" />
      <point x="30" y="425" />
      <point x="80" y="555" />
      <point x="161" y="654" />
      <point x="275" y="710" />
      <point x="339" y="710" type="qcurve" />
      <point x="403" y="710" />
      <point x="518" y="654" />
      <point x="599" y="555" />
      <point x="649" y="425" />
    </contour>
    <contour>
      <point x="519" y="350" type="qcurve" />
      <point x="519" y="417" />
      <point x="475" y="526" />
      <point x="391" y="590" />
      <point x="339" y="590" type="qcurve" />
      <point x="287" y="590" />
      <point x="203" y="526" />
      <point x="160" y="418" />
      <point x="160" y="350" type="qcurve" />
      <point x="160" y="283" />
      <point x="203" y="174" />
      <point x="287" y="110" />
      <point x="339" y="110" type="qcurve" />
      <point x="391" y="110" />
      <point x="475" y="174" />
      <point x="519" y="283" />
    </contour>
    <contour>
      <point x="320" y="265" type="line" />
      <point x="301" y="281" />
      <point x="299" y="326" />
      <point x="314" y="344" type="qcurve" />
      <point x="327" y="360" />
      <point x="370" y="363" />
      <point x="389" y="346" type="qcurve" />
      <point x="598" y="153" type="line" />
      <point x="667" y="89" type="line" />
      <point x="686" y="73" />
      <point x="688" y="28" />
      <point x="672" y="9" type="qcurve" />
      <point x="661" y="-4" />
      <point x="617" y="-9" />
      <point x="598" y="8" type="qcurve" />
    </contour>
  </outline>
</glyph>
<glyph name="R" format="2">
  <unicode hex="0052" />
  <advance width="687" />
  <outline>
    <contour>
      <point x="481" y="309" type="line" />
      <point x="638" y="102" type="line" />
      <point x="652" y="83" />
      <point x="652" y="61" type="qcurve" />
      <point x="652" y="33" />
      <point x="610" y="-2" />
      <point x="584" y="-2" type="qcurve" />
      <point x="556" y="-2" />
      <point x="539" y="21" type="qcurve" />
      <point x="329" y="297" type="line" />
    </contour>
    <contour>
      <point x="377" y="255" type="qcurve" />
      <point x="185" y="255" type="line" />
      <point x="200" y="278" type="line" />
      <point x="200" y="61" type="line" />
      <point x="200" y="35" />
      <point x="172" y="0" />
      <point x="147" y="0" type="qcurve" />
      <point x="119" y="0" />
      <point x="75" y="35" />
      <point x="75" y="61" type="qcurve" />
      <point x="75" y="639" type="line" />
      <point x="75" y="665" />
      <point x="110" y="700" />
      <point x="136" y="700" type="qcurve" />
      <point x="414" y="700" type="line" />
      <point x="466" y="700" />
      <point x="557" y="645" />
      <point x="613" y="548" />
      <point x="613" y="485" type="qcurve" />
      <point x="613" y="447" />
      <point x="598" y="410" type="qcurve" />
      <point x="566" y="339" />
      <point x="563" y="336" type="qcurve" />
      <point x="535" y="308" />
      <point x="510" y="291" type="qcurve" />
      <point x="482" y="274" />
      <point x="454" y="266" type="qcurve" />
      <point x="414" y="255" />
    </contour>
    <contour>
      <point x="186" y="358" type="line" />
      <point x="409" y="358" type="line" />
      <point x="427" y="358" />
      <point x="461" y="391" />
      <point x="483" y="448" />
      <point x="483" y="482" type="qcurve" />
      <point x="483" y="526" />
      <point x="436" y="585" />
      <point x="409" y="585" type="qcurve" />
      <point x="200" y="585" type="line" />
      <point x="200" y="334" type="line" />
    </contour>
  </outline>
</glyph>
<glyph name="S" format="2">
  <unicode hex="0053" />
  <advance width="597" />
  <outline>
    <contour>
      <point x="300" y="-10" type="qcurve" />
      <point x="230" y="-10" />
      <point x="118" y="25" />
      <point x="67" y="69" type="qcurve" />
      <point x="54" y="80" />
      <point x="40" y="108" />
      <point x="40" y="122" type="qcurve" />
      <point x="40" y="145" />
      <point x="73" y="180" />
      <point x="98" y="180" type="qcurve" />
      <point x="117" y="180" />
      <point x="132" y="168" type="qcurve" />
      <point x="170" y="137" />
      <point x="245" y="105" />
      <point x="300" y="105" type="qcurve" />
      <point x="337" y="105" />
      <point x="399" y="128" />
      <point x="437" y="167" />
      <point x="437" y="192" type="qcurve" />
      <point x="437" y="222" />
      <point x="401" y="264" />
      <point x="327" y="293" />
      <point x="270" y="301" type="qcurve" />
      <point x="216" y="309" />
      <point x="134" y="342" />
      <point x="79" y="393" />
      <point x="51" y="462" />
      <point x="51" y="505" type="qcurve" />
      <point x="51" y="570" />
      <point x="118" y="662" />
      <point x="232" y="710" />
      <point x="301" y="710" type="qcurve" />
      <point x="366" y="710" />
      <point x="477" y="671" />
      <point x="512" y="641" type="qcurve" />
      <point x="541" y="618" />
      <point x="541" y="588" type="qcurve" />
      <point x="541" y="566" />
      <point x="507" y="530" />
      <point x="484" y="530" type="qcurve" />
      <point x="469" y="530" />
      <point x="457" y="539" type="qcurve" />
      <point x="441" y="553" />
      <point x="387" y="578" />
      <point x="327" y="595" />
      <point x="301" y="595" type="qcurve" />
      <point x="258" y="595" />
      <point x="199" y="573" />
      <point x="169" y="535" />
      <point x="169" y="510" type="qcurve" />
      <point x="169" y="480" />
      <point x="204" y="441" />
      <point x="270" y="418" />
      <point x="316" y="409" type="qcurve" />
      <point x="376" y="398" />
      <point x="467" y="368" />
      <point x="527" y="321" />
      <point x="557" y="250" />
      <point x="557" y="199" type="qcurve" />
      <point x="557" y="134" />
      <point x="485" y="40" />
      <point x="368" y="-10" />
    </contour>
  </outline>
</glyph>
<glyph name="T" format="2">
  <unicode hex="0054" />
  <advance width="626" />
  <outline>
    <contour>
      <point x="91" y="585" type="line" />
      <point x="65" y="585" />
      <point x="30" y="617" />
      <point x="30" y="643" type="qcurve" />
      <point x="30" y="669" />
      <point x="65" y="700" />
      <point x="91" y="700" type="qcurve" />
      <point x="535" y="700" type="line" />
      <point x="561" y="700" />
      <point x="596" y="668" />
      <point x="596" y="642" type="qcurve" />
      <point x="596" y="616" />
      <point x="561" y="585" />
      <point x="535" y="585" type="qcurve" />
      <point x="378" y="585" type="line" />
      <point x="378" y="61" type="line" />
      <point x="378" y="35" />
      <point x="341" y="0" />
      <point x="312" y="0" type="qcurve" />
      <point x="284" y="0" />
      <point x="248" y="35" />
      <point x="248" y="61" type="qcurve" />
      <point x="248" y="585" type="line" />
    </contour>
  </outline>
</glyph>
<glyph name="U" format="2">
  <unicode hex="0055" />
  <advance width="705" />
  <outline>
    <contour>
      <point x="572" y="701" type="qcurve" />
      <point x="598" y="701" />
      <point x="630" y="666" />
      <point x="630" y="640" type="qcurve" />
      <point x="630" y="278" type="line" />
      <point x="630" y="195" />
      <point x="559" y="67" />
      <point x="435" y="-5" />
      <point x="353" y="-5" type="qcurve" />
      <point x="271" y="-5" />
      <point x="146" y="67" />
      <point x="75" y="195" />
      <point x="75" y="278" type="qcurve" />
      <point x="75" y="640" type="line" />
      <point x="75" y="666" />
      <point x="111" y="701" />
      <point x="139" y="701" type="qcurve" />
      <point x="162" y="701" />
      <point x="199" y="666" />
      <point x="199" y="640" type="qcurve" />
      <point x="199" y="278" type="line" />
      <point x="199" y="228" />
      <point x="242" y="155" />
      <point x="313" y="115" />
      <point x="353" y="115" type="qcurve" />
      <point x="396" y="115" />
      <point x="470" y="155" />
      <point x="516" y="228" />
      <point x="516" y="278" type="qcurve" />
      <point x="516" y="640" type="line" />
      <point x="516" y="666" />
      <point x="546" y="701" />
    </contour>
  </outline>
</glyph>
<glyph name="V" format="2">
  <unicode hex="0056" />
  <advance width="678" />
  <outline>
    <contour>
      <point x="586" y="702" type="qcurve" />
      <point x="611" y="702" />
      <point x="648" y="669" />
      <point x="648" y="644" type="qcurve" />
      <point x="648" y="631" />
      <point x="642" y="617" type="qcurve" />
      <point x="395" y="39" type="line" />
      <point x="386" y="19" />
      <point x="353" y="0" />
      <point x="336" y="0" type="qcurve" />
      <point x="320" y="1" />
      <point x="290" y="20" />
      <point x="282" y="38" type="qcurve" />
      <point x="35" y="618" type="line" />
      <point x="32" y="624" />
      <point x="30" y="637" />
      <point x="30" y="643" type="qcurve" />
      <point x="30" y="672" />
      <point x="72" y="703" />
      <point x="91" y="703" type="qcurve" />
      <point x="129" y="703" />
      <point x="146" y="664" type="qcurve" />
      <point x="365" y="149" type="line" />
      <point x="330" y="148" type="line" />
      <point x="531" y="664" type="line" />
      <point x="548" y="702" />
    </contour>
  </outline>
</glyph>
<glyph name="W" format="2">
  <unicode hex="0057" />
  <advance width="943" />
  <outline>
    <contour>
      <point x="862" y="703" type="qcurve" />
      <point x="885" y="703" />
      <point x="927" y="668" />
      <point x="927" y="638" type="qcurve" />
      <point x="927" y="629" />
      <point x="924" y="618" type="qcurve" />
      <point x="727" y="38" type="line" />
      <point x="721" y="20" />
      <point x="690" y="1" />
      <point x="673" y="0" type="qcurve" />
      <point x="656" y="0" />
      <point x="623" y="20" />
      <point x="614" y="39" type="qcurve" />
      <point x="466" y="375" type="line" />
      <point x="475" y="369" type="line" />
      <point x="329" y="39" type="line" />
      <point x="320" y="20" />
      <point x="287" y="0" />
      <point x="270" y="0" type="qcurve" />
      <point x="254" y="1" />
      <point x="222" y="20" />
      <point x="216" y="38" type="qcurve" />
      <point x="19" y="618" type="line" />
      <point x="16" y="629" />
      <point x="16" y="638" type="qcurve" />
      <point x="16" y="668" />
      <point x="59" y="703" />
      <point x="82" y="703" type="qcurve" />
      <point x="101" y="703" />
      <point x="134" y="683" />
      <point x="140" y="664" type="qcurve" />
      <point x="299" y="182" type="line" />
      <point x="277" y="183" type="line" />
      <point x="419" y="524" type="line" />
      <point x="427" y="542" />
      <point x="457" y="563" />
      <point x="476" y="562" type="qcurve" />
      <point x="495" y="563" />
      <point x="525" y="542" />
      <point x="532" y="524" type="qcurve" />
      <point x="662" y="198" type="line" />
      <point x="646" y="188" type="line" />
      <point x="803" y="664" type="line" />
      <point x="809" y="683" />
      <point x="843" y="703" />
    </contour>
  </outline>
</glyph>
<glyph name="X" format="2">
  <unicode hex="0058" />
  <advance width="655" />
  <outline>
    <contour>
      <point x="108" y="703" type="qcurve" />
      <point x="137" y="703" />
      <point x="157" y="677" type="qcurve" />
      <point x="597" y="92" type="line" />
      <point x="609" y="76" />
      <point x="609" y="55" type="qcurve" />
      <point x="609" y="27" />
      <point x="569" y="-5" />
      <point x="549" y="-5" type="qcurve" />
      <point x="520" y="-5" />
      <point x="500" y="21" type="qcurve" />
      <point x="60" y="606" type="line" />
      <point x="47" y="622" />
      <point x="47" y="642" type="qcurve" />
      <point x="47" y="668" />
      <point x="86" y="703" />
    </contour>
    <contour>
      <point x="329" y="267" type="line" />
      <point x="149" y="23" type="line" />
      <point x="129" y="-5" />
      <point x="99" y="-5" type="qcurve" />
      <point x="77" y="-5" />
      <point x="45" y="28" />
      <point x="45" y="48" type="qcurve" />
      <point x="45" y="70" />
      <point x="60" y="89" type="qcurve" />
      <point x="263" y="364" type="line" />
      <point x="318" y="437" type="line" />
      <point x="505" y="682" type="line" />
      <point x="526" y="711" />
      <point x="554" y="711" type="qcurve" />
      <point x="577" y="711" />
      <point x="610" y="675" />
      <point x="610" y="655" type="qcurve" />
      <point x="610" y="636" />
      <point x="597" y="619" type="qcurve" />
      <point x="386" y="344" type="line" />
    </contour>
  </outline>
</glyph>
<glyph name="Y" format="2">
  <unicode hex="0059" />
  <advance width="596" />
  <outline>
    <contour>
      <point x="521" y="703" type="qcurve" />
      <point x="544" y="703" />
      <point x="581" y="668" />
      <point x="581" y="641" type="qcurve" />
      <point x="581" y="632" />
      <point x="576" y="613" />
      <point x="570" y="604" type="qcurve" />
      <point x="359" y="317" type="line" />
      <point x="359" y="61" type="line" />
      <point x="359" y="35" />
      <point x="324" y="0" />
      <point x="301" y="0" type="qcurve" />
      <point x="276" y="0" />
      <point x="241" y="35" />
      <point x="241" y="61" type="qcurve" />
      <point x="241" y="318" type="line" />
      <point x="241" y="319" />
      <point x="35" y="595" type="qcurve" />
      <point x="25" y="608" />
      <point x="17" y="632" />
      <point x="17" y="642" type="qcurve" />
      <point x="17" y="669" />
      <point x="59" y="703" />
      <point x="81" y="703" type="qcurve" />
      <point x="109" y="703" />
      <point x="130" y="675" type="qcurve" />
      <point x="322" y="410" type="line" />
      <point x="294" y="428" type="line" />
      <point x="471" y="673" type="line" />
      <point x="492" y="703" />
    </contour>
  </outline>
</glyph>
<glyph name="Z" format="2">
  <unicode hex="005A" />
  <advance width="648" />
  <outline>
    <contour>
      <point x="548" y="700" type="line" />
      <point x="570" y="700" />
      <point x="613" y="668" />
      <point x="613" y="641" type="qcurve" />
      <point x="613" y="622" />
      <point x="599" y="603" type="qcurve" />
      <point x="216" y="111" type="line" />
      <point x="204" y="115" type="line" />
      <point x="538" y="115" type="line" />
      <point x="564" y="115" />
      <point x="599" y="84" />
      <point x="599" y="58" type="qcurve" />
      <point x="599" y="33" />
      <point x="564" y="0" />
      <point x="538" y="0" type="qcurve" />
      <point x="99" y="0" type="line" />
      <point x="73" y="0" />
      <point x="35" y="37" />
      <point x="35" y="59" type="qcurve" />
      <point x="35" y="78" />
      <point x="49" y="97" type="qcurve" />
      <point x="433" y="591" type="line" />
      <point x="442" y="585" type="line" />
      <point x="139" y="585" type="line" />
      <point x="113" y="585" />
      <point x="78" y="617" />
      <point x="78" y="643" type="qcurve" />
      <point x="78" y="669" />
      <point x="113" y="700" />
      <point x="139" y="700" type="qcurve" />
    </contour>
  </outline>
</glyph>
<glyph name="bracketleft" format="2">
  <unicode hex="005B" />
  <advance width="407" />
  <outline>
    <contour>
      <point x="128" y="-190" type="line" />
      <point x="107" y="-190" />
      <point x="80" y="-163" />
      <point x="80" y="-142" type="qcurve" />
      <point x="80" y="652" type="line" />
      <point x="80" y="673" />
      <point x="107" y="700" />
      <point x="128" y="700" type="qcurve" />
      <point x="339" y="700" type="line" />
      <point x="360" y="700" />
      <point x="387" y="673" />
      <point x="387" y="652" type="qcurve" />
      <point x="387" y="632" />
      <point x="360" y="605" />
      <point x="339" y="605" type="qcurve" />
      <point x="190" y="605" type="line" />
      <point x="195" y="613" type="line" />
      <point x="195" y="-107" type="line" />
      <point x="183" y="-95" type="line" />
      <point x="339" y="-95" type="line" />
      <point x="360" y="-95" />
      <point x="387" y="-122" />
      <point x="387" y="-143" type="qcurve" />
      <point x="387" y="-163" />
      <point x="360" y="-190" />
      <point x="339" y="-190" type="qcurve" />
    </contour>
  </outline>
</glyph>
<glyph name="backslash" format="2">
  <unicode hex="005C" />
  <advance width="568" />
  <outline>
    <contour>
      <point x="484" y="-134" type="qcurve" />
      <point x="471" y="-134" />
      <point x="447" y="-118" />
      <point x="440" y="-104" type="qcurve" />
      <point x="35" y="727" type="line" />
      <point x="32" y="733" />
      <point x="29" y="745" />
      <point x="29" y="751" type="qcurve" />
      <point x="29" y="774" />
      <point x="64" y="801" />
      <point x="81" y="801" type="qcurve" />
      <point x="95" y="801" />
      <point x="118" y="785" />
      <point x="125" y="771" type="qcurve" />
      <point x="531" y="-60" type="line" />
      <point x="537" y="-72" />
      <point x="537" y="-84" type="qcurve" />
      <point x="537" y="-108" />
      <point x="499" y="-134" />
    </contour>
  </outline>
</glyph>
<glyph name="bracketright" format="2">
  <unicode hex="005D" />
  <advance width="407" />
  <outline>
    <contour>
      <point x="279" y="760" type="line" />
      <point x="300" y="760" />
      <point x="327" y="733" />
      <point x="327" y="712" type="qcurve" />
      <point x="327" y="-132" type="line" />
      <point x="327" y="-153" />
      <point x="300" y="-180" />
      <point x="279" y="-180" type="qcurve" />
      <point x="68" y="-180" type="line" />
      <point x="47" y="-180" />
      <point x="20" y="-153" />
      <point x="20" y="-132" type="qcurve" />
      <point x="20" y="-112" />
      <point x="47" y="-85" />
      <point x="68" y="-85" type="qcurve" />
      <point x="217" y="-85" type="line" />
      <point x="212" y="-93" type="line" />
      <point x="212" y="677" type="line" />
      <point x="224" y="665" type="line" />
      <point x="68" y="665" type="line" />
      <point x="47" y="665" />
      <point x="20" y="692" />
      <point x="20" y="713" type="qcurve" />
      <point x="20" y="733" />
      <point x="47" y="760" />
      <point x="68" y="760" type="qcurve" />
    </contour>
  </outline>
</glyph>
<glyph name="asciicircum" format="2">
  <unicode hex="005E" />
  <advance width="618" />
  <outline>
    <contour>
      <point x="113" y="319" type="qcurve" />
      <point x="88" y="319" />
      <point x="50" y="356" />
      <point x="50" y="382" type="qcurve" />
      <point x="50" y="394" />
      <point x="63" y="416" />
      <point x="70" y="428" type="qcurve" />
      <point x="227" y="685" type="line" />
      <point x="239" y="705" />
      <point x="281" y="714" />
      <point x="308" y="714" type="qcurve" />
      <point x="340" y="714" />
      <point x="380" y="703" />
      <point x="391" y="685" type="qcurve" />
      <point x="549" y="427" type="line" />
      <point x="556" y="416" />
      <point x="569" y="394" />
      <point x="569" y="382" type="qcurve" />
      <point x="569" y="357" />
      <point x="531" y="319" />
      <point x="505" y="319" type="qcurve" />
      <point x="493" y="319" />
      <point x="467" y="327" />
      <point x="460" y="338" type="qcurve" />
      <point x="299" y="599" type="line" />
      <point x="323" y="603" type="line" />
      <point x="158" y="338" type="line" />
      <point x="151" y="327" />
      <point x="125" y="319" />
    </contour>
  </outline>
</glyph>
<glyph name="underscore" format="2">
  <unicode hex="005F" />
  <advance width="704" />
  <outline>
    <contour>
      <point x="98" y="-160" type="line" />
      <point x="77" y="-160" />
      <point x="50" y="-133" />
      <point x="50" y="-113" type="qcurve" />
      <point x="50" y="-93" />
      <point x="77" y="-66" />
      <point x="98" y="-66" type="qcurve" />
      <point x="606" y="-66" type="line" />
      <point x="627" y="-66" />
      <point x="654" y="-93" />
      <point x="654" y="-114" type="qcurve" />
      <point x="654" y="-134" />
      <point x="627" y="-160" />
      <point x="606" y="-160" type="qcurve" />
    </contour>
  </outline>
</glyph>
<glyph name="a" format="2">
  <unicode hex="0061" />
  <advance width="601" />
  <outline>
    <contour>
      <point x="416" y="176" type="qcurve" />
      <point x="416" y="484" type="line" />
      <point x="416" y="510" />
      <point x="450" y="545" />
      <point x="476" y="545" type="qcurve" />
      <point x="502" y="545" />
      <point x="536" y="510" />
      <point x="536" y="484" type="qcurve" />
      <point x="536" y="211" type="line" />
      <point x="535" y="198" />
      <point x="537" y="173" type="qcurve" />
      <point x="538" y="157" />
      <point x="543" y="136" type="qcurve" />
      <point x="545" y="123" />
      <point x="564" y="101" type="qcurve" />
      <point x="580" y="83" />
      <point x="586" y="65" type="qcurve" />
      <point x="592" y="47" />
      <point x="581" y="28" type="qcurve" />
      <point x="576" y="18" type="line" />
      <point x="564" y="-1" />
      <point x="542" y="-8" type="qcurve" />
      <point x="521" y="-15" />
      <point x="499" y="-2" type="qcurve" />
      <point x="473" y="12" />
      <point x="452" y="38" type="qcurve" />
      <point x="428" y="68" />
      <point x="417" y="117" type="qcurve" />
      <point x="416" y="121" />
    </contour>
    <contour>
      <point x="530" y="224" type="qcurve" />
      <point x="522" y="176" />
      <point x="503" y="136" type="qcurve" />
      <point x="491" y="109" />
      <point x="474" y="87" type="qcurve" />
      <point x="432" y="31" />
      <point x="309" y="-18" />
      <point x="244" y="-7" type="qcurve" />
      <point x="169" y="6" />
      <point x="70" y="95" />
      <point x="29" y="229" />
      <point x="44" y="310" type="qcurve" />
      <point x="58" y="391" />
      <point x="142" y="503" />
      <point x="265" y="553" />
      <point x="340" y="540" type="qcurve" />
      <point x="405" y="529" />
      <point x="504" y="439" />
      <point x="544" y="305" />
    </contour>
    <contour>
      <point x="412" y="225" type="qcurve" />
      <point x="421" y="275" />
      <point x="403" y="374" />
      <point x="353" y="426" />
      <point x="321" y="432" type="qcurve" />
      <point x="280" y="439" />
      <point x="214" y="408" />
      <point x="171" y="339" />
      <point x="162" y="289" type="qcurve" />
      <point x="153" y="240" />
      <point x="171" y="161" />
      <point x="221" y="109" />
      <point x="263" y="102" type="qcurve" />
      <point x="295" y="96" />
      <point x="360" y="127" />
      <point x="403" y="176" />
    </contour>
  </outline>
</glyph>
<glyph name="b" format="2">
  <unicode hex="0062" />
  <advance width="628" />
  <outline>
    <contour>
      <point x="342" y="545" type="qcurve" />
      <point x="412" y="545" />
      <point x="523" y="474" />
      <point x="588" y="350" />
      <point x="588" y="268" type="qcurve" />
      <point x="588" y="186" />
      <point x="523" y="61" />
      <point x="414" y="-10" />
      <point x="346" y="-10" type="qcurve" />
      <point x="306" y="-10" />
      <point x="236" y="16" />
      <point x="183" y="56" />
      <point x="154" y="97" />
      <point x="154" y="111" type="qcurve" />
      <point x="185" y="124" type="line" />
      <point x="185" y="51" type="line" />
      <point x="185" y="25" />
      <point x="151" y="-10" />
      <point x="125" y="-10" type="qcurve" />
      <point x="99" y="-10" />
      <point x="65" y="24" />
      <point x="65" y="51" type="qcurve" />
      <point x="65" y="679" type="line" />
      <point x="65" y="705" />
      <point x="99" y="740" />
      <point x="125" y="740" type="qcurve" />
      <point x="151" y="740" />
      <point x="185" y="705" />
      <point x="185" y="679" type="qcurve" />
      <point x="185" y="425" type="line" />
      <point x="168" y="434" type="line" />
      <point x="168" y="447" />
      <point x="196" y="484" />
      <point x="244" y="521" />
      <point x="307" y="545" />
    </contour>
    <contour>
      <point x="327" y="435" type="qcurve" />
      <point x="283" y="435" />
      <point x="217" y="391" />
      <point x="180" y="316" />
      <point x="180" y="268" type="qcurve" />
      <point x="180" y="221" />
      <point x="217" y="144" />
      <point x="283" y="100" />
      <point x="327" y="100" type="qcurve" />
      <point x="371" y="100" />
      <point x="436" y="144" />
      <point x="473" y="221" />
      <point x="473" y="268" type="qcurve" />
      <point x="473" y="316" />
      <point x="436" y="391" />
      <point x="371" y="435" />
    </contour>
  </outline>
</glyph>
<glyph name="c" format="2">
  <unicode hex="0063" />
  <advance width="520" />
  <outline>
    <contour>
      <point x="303" y="545" type="qcurve" />
      <point x="360" y="545" />
      <point x="445" y="521" />
      <point x="492" y="478" />
      <point x="492" y="448" type="qcurve" />
      <point x="492" y="428" />
      <point x="468" y="393" />
      <point x="445" y="393" type="qcurve" />
      <point x="429" y="393" />
      <point x="408" y="402" />
      <point x="392" y="416" />
      <point x="381" y="422" type="qcurve" />
      <point x="371" y="428" />
      <point x="330" y="435" />
      <point x="320" y="435" type="qcurve" />
      <point x="269" y="435" />
      <point x="198" y="391" />
      <point x="160" y="316" />
      <point x="160" y="267" type="qcurve" />
      <point x="160" y="219" />
      <point x="199" y="144" />
      <point x="268" y="100" />
      <point x="313" y="100" type="qcurve" />
      <point x="338" y="100" />
      <point x="374" y="106" />
      <point x="386" y="112" type="qcurve" />
      <point x="400" y="120" />
      <point x="422" y="138" />
      <point x="444" y="138" type="qcurve" />
      <point x="470" y="138" />
      <point x="498" y="105" />
      <point x="498" y="81" type="qcurve" />
      <point x="498" y="56" />
      <point x="442" y="15" />
      <point x="351" y="-10" />
      <point x="298" y="-10" type="qcurve" />
      <point x="219" y="-10" />
      <point x="103" y="63" />
      <point x="40" y="189" />
      <point x="40" y="267" type="qcurve" />
      <point x="40" y="349" />
      <point x="107" y="474" />
      <point x="226" y="545" />
    </contour>
  </outline>
</glyph>
<glyph name="d" format="2">
  <unicode hex="0064" />
  <advance width="628" />
  <outline>
    <contour>
      <point x="503" y="740" type="qcurve" />
      <point x="529" y="740" />
      <point x="563" y="706" />
      <point x="563" y="679" type="qcurve" />
      <point x="563" y="61" type="line" />
      <point x="563" y="35" />
      <point x="529" y="0" />
      <point x="503" y="0" type="qcurve" />
      <point x="477" y="0" />
      <point x="443" y="35" />
      <point x="443" y="61" type="qcurve" />
      <point x="443" y="110" type="line" />
      <point x="465" y="101" type="line" />
      <point x="465" y="88" />
      <point x="437" y="51" />
      <point x="389" y="15" />
      <point x="324" y="-10" />
      <point x="286" y="-10" type="qcurve" />
      <point x="217" y="-10" />
      <point x="105" y="61" />
      <point x="40" y="186" />
      <point x="40" y="267" type="qcurve" />
      <point x="40" y="349" />
      <point x="105" y="474" />
      <point x="215" y="545" />
      <point x="282" y="545" type="qcurve" />
      <point x="325" y="545" />
      <point x="397" y="519" />
      <point x="450" y="479" />
      <point x="479" y="438" />
      <point x="479" y="424" type="qcurve" />
      <point x="443" y="411" type="line" />
      <point x="443" y="679" type="line" />
      <point x="443" y="705" />
      <point x="477" y="740" />
    </contour>
    <contour>
      <point x="301" y="100" type="qcurve" />
      <point x="345" y="100" />
      <point x="411" y="144" />
      <point x="448" y="220" />
      <point x="448" y="267" type="qcurve" />
      <point x="448" y="315" />
      <point x="411" y="391" />
      <point x="345" y="435" />
      <point x="301" y="435" type="qcurve" />
      <point x="258" y="435" />
      <point x="192" y="391" />
      <point x="155" y="315" />
      <point x="155" y="267" type="qcurve" />
      <point x="155" y="220" />
      <point x="192" y="144" />
      <point x="258" y="100" />
    </contour>
  </outline>
</glyph>
<glyph name="e" format="2">
  <unicode hex="0065" />
  <advance width="590" />
  <outline>
    <contour>
      <point x="317" y="-10" type="qcurve" />
      <point x="232" y="-10" />
      <point x="107" y="61" />
      <point x="40" y="183" />
      <point x="40" y="260" type="qcurve" />
      <point x="40" y="350" />
      <point x="113" y="477" />
      <point x="231" y="545" />
      <point x="297" y="545" type="qcurve" />
      <point x="348" y="545" />
      <point x="439" y="503" />
      <point x="509" y="430" />
      <point x="550" y="334" />
      <point x="550" y="280" type="qcurve" />
      <point x="549" y="256" />
      <point x="513" y="226" />
      <point x="489" y="226" type="qcurve" />
      <point x="107" y="226" type="line" />
      <point x="77" y="326" type="line" />
      <point x="444" y="326" type="line" />
      <point x="422" y="306" type="line" />
      <point x="422" y="333" type="line" />
      <point x="420" y="362" />
      <point x="383" y="408" />
      <point x="328" y="435" />
      <point x="297" y="435" type="qcurve" />
      <point x="267" y="435" />
      <point x="215" y="419" />
      <point x="177" y="381" />
      <point x="155" y="317" />
      <point x="155" y="268" type="qcurve" />
      <point x="155" y="214" />
      <point x="200" y="139" />
      <point x="271" y="100" />
      <point x="311" y="100" type="qcurve" />
      <point x="348" y="100" />
      <point x="392" y="112" />
      <point x="419" y="129" />
      <point x="430" y="135" type="qcurve" />
      <point x="448" y="144" />
      <point x="464" y="144" type="qcurve" />
      <point x="486" y="144" />
      <point x="515" y="114" />
      <point x="515" y="94" type="qcurve" />
      <point x="515" y="67" />
      <point x="487" y="45" type="qcurve" />
      <point x="461" y="23" />
      <point x="367" y="-10" />
    </contour>
  </outline>
</glyph>
<glyph name="f" format="2">
  <unicode hex="0066" />
  <advance width="437" />
  <outline>
    <contour>
      <point x="340" y="740" type="qcurve" />
      <point x="362" y="740" />
      <point x="404" y="728" />
      <point x="432" y="701" />
      <point x="432" y="679" type="qcurve" />
      <point x="432" y="654" />
      <point x="403" y="625" />
      <point x="384" y="625" type="qcurve" />
      <point x="375" y="625" />
      <point x="339" y="634" />
      <point x="322" y="634" type="qcurve" />
      <point x="297" y="634" />
      <point x="270" y="612" />
      <point x="260" y="583" />
      <point x="260" y="572" type="qcurve" />
      <point x="260" y="61" type="line" />
      <point x="260" y="35" />
      <point x="226" y="0" />
      <point x="200" y="0" type="qcurve" />
      <point x="174" y="0" />
      <point x="140" y="35" />
      <point x="140" y="61" type="qcurve" />
      <point x="140" y="571" type="line" />
      <point x="140" y="642" />
      <point x="240" y="740" />
    </contour>
    <contour>
      <point x="351" y="525" type="line" />
      <point x="375" y="525" />
      <point x="407" y="494" />
      <point x="407" y="470" type="qcurve" />
      <point x="407" y="446" />
      <point x="375" y="415" />
      <point x="351" y="415" type="qcurve" />
      <point x="86" y="415" type="line" />
      <point x="62" y="415" />
      <point x="30" y="446" />
      <point x="30" y="470" type="qcurve" />
      <point x="30" y="494" />
      <point x="62" y="525" />
      <point x="86" y="525" type="qcurve" />
    </contour>
  </outline>
</glyph>
<glyph name="g" format="2">
  <unicode hex="0067" />
  <advance width="638" />
  <outline>
    <contour>
      <point x="287" y="545" type="qcurve" />
      <point x="329" y="545" />
      <point x="399" y="519" />
      <point x="450" y="479" />
      <point x="479" y="438" />
      <point x="479" y="424" type="qcurve" />
      <point x="453" y="411" type="line" />
      <point x="453" y="484" type="line" />
      <point x="453" y="510" />
      <point x="487" y="545" />
      <point x="513" y="545" type="qcurve" />
      <point x="539" y="545" />
      <point x="573" y="511" />
      <point x="573" y="484" type="qcurve" />
      <point x="573" y="39" type="line" />
      <point x="573" y="-48" />
      <point x="498" y="-153" />
      <point x="376" y="-200" />
      <point x="306" y="-200" type="qcurve" />
      <point x="286" y="-200" />
      <point x="222" y="-190" />
      <point x="164" y="-176" />
      <point x="149" y="-170" type="qcurve" />
      <point x="119" y="-157" />
      <point x="96" y="-118" />
      <point x="103" y="-96" type="qcurve" />
      <point x="112" y="-67" />
      <point x="152" y="-46" />
      <point x="174" y="-54" type="qcurve" />
      <point x="184" y="-57" />
      <point x="230" y="-75" />
      <point x="285" y="-90" />
      <point x="306" y="-90" type="qcurve" />
      <point x="381" y="-90" />
      <point x="453" y="-30" />
      <point x="453" y="23" type="qcurve" />
      <point x="453" y="110" type="line" />
      <point x="465" y="101" type="line" />
      <point x="465" y="88" />
      <point x="438" y="51" />
      <point x="391" y="15" />
      <point x="327" y="-10" />
      <point x="291" y="-10" type="qcurve" />
      <point x="220" y="-10" />
      <point x="106" y="61" />
      <point x="40" y="186" />
      <point x="40" y="267" type="qcurve" />
      <point x="40" y="349" />
      <point x="106" y="474" />
      <point x="218" y="545" />
    </contour>
    <contour>
      <point x="306" y="435" type="qcurve" />
      <point x="261" y="435" />
      <point x="193" y="391" />
      <point x="155" y="315" />
      <point x="155" y="267" type="qcurve" />
      <point x="155" y="220" />
      <point x="193" y="144" />
      <point x="261" y="100" />
      <point x="306" y="100" type="qcurve" />
      <point x="352" y="100" />
      <point x="420" y="144" />
      <point x="458" y="220" />
      <point x="458" y="267" type="qcurve" />
      <point x="458" y="315" />
      <point x="420" y="391" />
      <point x="352" y="435" />
    </contour>
  </outline>
</glyph>
<glyph name="h" format="2">
  <unicode hex="0068" />
  <advance width="586" />
  <outline>
    <contour>
      <point x="346" y="545" type="qcurve" />
      <point x="418" y="545" />
      <point x="493" y="483" />
      <point x="521" y="380" />
      <point x="521" y="317" type="qcurve" />
      <point x="521" y="61" type="line" />
      <point x="521" y="35" />
      <point x="487" y="0" />
      <point x="461" y="0" type="qcurve" />
      <point x="435" y="0" />
      <point x="401" y="35" />
      <point x="401" y="61" type="qcurve" />
      <point x="401" y="317" type="line" />
      <point x="401" y="350" />
      <point x="385" y="403" />
      <point x="343" y="435" />
      <point x="304" y="435" type="qcurve" />
      <point x="266" y="435" />
      <point x="212" y="403" />
      <point x="185" y="350" />
      <point x="185" y="317" type="qcurve" />
      <point x="185" y="61" type="line" />
      <point x="185" y="35" />
      <point x="151" y="0" />
      <point x="125" y="0" type="qcurve" />
      <point x="99" y="0" />
      <point x="65" y="35" />
      <point x="65" y="61" type="qcurve" />
      <point x="65" y="679" type="line" />
      <point x="65" y="705" />
      <point x="99" y="740" />
      <point x="125" y="740" type="qcurve" />
      <point x="151" y="740" />
      <point x="185" y="705" />
      <point x="185" y="679" type="qcurve" />
      <point x="185" y="431" type="line" />
      <point x="170" y="434" type="line" />
      <point x="179" y="451" />
      <point x="211" y="490" />
      <point x="257" y="524" />
      <point x="313" y="545" />
    </contour>
  </outline>
</glyph>
<glyph name="l" format="2">
  <unicode hex="006C" />
  <advance width="270" />
  <outline>
    <contour>
      <point x="195" y="61" type="line" />
      <point x="195" y="35" />
      <point x="160" y="0" />
      <point x="134" y="0" type="qcurve" />
      <point x="109" y="0" />
      <point x="75" y="35" />
      <point x="75" y="61" type="qcurve" />
      <point x="75" y="679" type="line" />
      <point x="75" y="705" />
      <point x="110" y="740" />
      <point x="136" y="740" type="qcurve" />
      <point x="162" y="740" />
      <point x="195" y="705" />
      <point x="195" y="679" type="qcurve" />
    </contour>
  </outline>
</glyph>
<glyph name="m" format="2">
  <unicode hex="006D" />
  <advance width="922" />
  <outline>
    <contour>
      <point x="346" y="545" type="qcurve" />
      <point x="426" y="545" />
      <point x="502" y="468" />
      <point x="514" y="407" type="qcurve" />
      <point x="497" y="416" type="line" />
      <point x="505" y="432" type="line" />
      <point x="517" y="455" />
      <point x="567" y="508" />
      <point x="638" y="545" />
      <point x="682" y="545" type="qcurve" />
      <point x="754" y="545" />
      <point x="829" y="483" />
      <point x="857" y="380" />
      <point x="857" y="317" type="qcurve" />
      <point x="857" y="61" type="line" />
      <point x="857" y="35" />
      <point x="823" y="0" />
      <point x="797" y="0" type="qcurve" />
      <point x="771" y="0" />
      <point x="737" y="35" />
      <point x="737" y="61" type="qcurve" />
      <point x="737" y="317" type="line" />
      <point x="737" y="350" />
      <point x="721" y="403" />
      <point x="679" y="435" />
      <point x="640" y="435" type="qcurve" />
      <point x="602" y="435" />
      <point x="548" y="403" />
      <point x="521" y="350" />
      <point x="521" y="317" type="qcurve" />
      <point x="521" y="61" type="line" />
      <point x="521" y="35" />
      <point x="487" y="0" />
      <point x="461" y="0" type="qcurve" />
      <point x="435" y="0" />
      <point x="401" y="35" />
      <point x="401" y="61" type="qcurve" />
      <point x="401" y="317" type="line" />
      <point x="401" y="350" />
      <point x="385" y="403" />
      <point x="343" y="435" />
      <point x="304" y="435" type="qcurve" />
      <point x="266" y="435" />
      <point x="212" y="403" />
      <point x="185" y="350" />
      <point x="185" y="317" type="qcurve" />
      <point x="185" y="61" type="line" />
      <point x="185" y="35" />
      <point x="151" y="0" />
      <point x="125" y="0" type="qcurve" />
      <point x="99" y="0" />
      <point x="65" y="35" />
      <point x="65" y="61" type="qcurve" />
      <point x="65" y="474" type="line" />
      <point x="65" y="500" />
      <point x="99" y="535" />
      <point x="125" y="535" type="qcurve" />
      <point x="151" y="535" />
      <point x="185" y="500" />
      <point x="185" y="474" type="qcurve" />
      <point x="185" y="431" type="line" />
      <point x="170" y="434" type="line" />
      <point x="179" y="451" />
      <point x="211" y="490" />
      <point x="257" y="524" />
      <point x="313" y="545" />
    </contour>
  </outline>
</glyph>
<glyph name="n" format="2">
  <unicode hex="006E" />
  <advance width="596" />
  <outline>
    <contour>
      <point x="351" y="545" type="qcurve" />
      <point x="425" y="545" />
      <point x="502" y="483" />
      <point x="531" y="380" />
      <point x="531" y="317" type="qcurve" />
      <point x="531" y="61" type="line" />
      <point x="531" y="35" />
      <point x="497" y="0" />
      <point x="471" y="0" type="qcurve" />
      <point x="445" y="0" />
      <point x="411" y="35" />
      <point x="411" y="61" type="qcurve" />
      <point x="411" y="317" type="line" />
      <point x="411" y="350" />
      <point x="394" y="403" />
      <point x="350" y="435" />
      <point x="309" y="435" type="qcurve" />
      <point x="269" y="435" />
      <point x="214" y="403" />
      <point x="185" y="350" />
      <point x="185" y="317" type="qcurve" />
      <point x="185" y="61" type="line" />
      <point x="185" y="35" />
      <point x="151" y="0" />
      <point x="125" y="0" type="qcurve" />
      <point x="99" y="0" />
      <point x="65" y="35" />
      <point x="65" y="61" type="qcurve" />
      <point x="65" y="474" type="line" />
      <point x="65" y="500" />
      <point x="99" y="535" />
      <point x="125" y="535" type="qcurve" />
      <point x="151" y="535" />
      <point x="185" y="500" />
      <point x="185" y="474" type="qcurve" />
      <point x="185" y="431" type="line" />
      <point x="170" y="434" type="line" />
      <point x="179" y="451" />
      <point x="213" y="490" />
      <point x="259" y="524" />
      <point x="317" y="545" />
    </contour>
  </outline>
</glyph>
<glyph name="o" format="2">
  <unicode hex="006F" />
  <advance width="624" />
  <outline>
    <contour>
      <point x="584" y="267" type="qcurve" />
      <point x="584" y="185" />
      <point x="511" y="60" />
      <point x="388" y="-10" />
      <point x="312" y="-10" type="qcurve" />
      <point x="236" y="-10" />
      <point x="113" y="60" />
      <point x="40" y="185" />
      <point x="40" y="267" type="qcurve" />
      <point x="40" y="349" />
      <point x="113" y="474" />
      <point x="236" y="545" />
      <point x="312" y="545" type="qcurve" />
      <point x="388" y="545" />
      <point x="511" y="474" />
      <point x="584" y="349" />
    </contour>
    <contour>
      <point x="464" y="267" type="qcurve" />
      <point x="464" y="318" />
      <point x="423" y="393" />
      <point x="354" y="435" />
      <point x="312" y="435" type="qcurve" />
      <point x="270" y="435" />
      <point x="201" y="393" />
      <point x="160" y="318" />
      <point x="160" y="267" type="qcurve" />
      <point x="160" y="217" />
      <point x="201" y="142" />
      <point x="270" y="100" />
      <point x="312" y="100" type="qcurve" />
      <point x="354" y="100" />
      <point x="423" y="142" />
      <point x="464" y="217" />
    </contour>
  </outline>
</glyph>
<glyph name="r" format="2">
  <unicode hex="0072" />
  <advance width="434" />
  <outline>
    <contour>
      <point x="125" y="0" type="qcurve" />
      <point x="99" y="0" />
      <point x="65" y="35" />
      <point x="65" y="61" type="qcurve" />
      <point x="65" y="474" type="line" />
      <point x="65" y="500" />
      <point x="99" y="535" />
      <point x="125" y="535" type="qcurve" />
      <point x="151" y="535" />
      <point x="185" y="500" />
      <point x="185" y="474" type="qcurve" />
      <point x="185" y="380" type="line" />
      <point x="178" y="447" type="line" />
      <point x="189" y="471" />
      <point x="224" y="508" />
      <point x="268" y="533" />
      <point x="318" y="545" />
      <point x="343" y="545" type="qcurve" />
      <point x="373" y="545" />
      <point x="414" y="511" />
      <point x="414" y="488" type="qcurve" />
      <point x="414" y="455" />
      <point x="380" y="426" />
      <point x="360" y="426" type="qcurve" />
      <point x="335" y="426" />
      <point x="317" y="425" />
      <point x="296" y="422" type="qcurve" />
      <point x="278" y="421" />
      <point x="254" y="405" type="qcurve" />
      <point x="235" y="394" />
      <point x="204" y="350" />
      <point x="185" y="297" />
      <point x="185" y="261" type="qcurve" />
      <point x="185" y="61" type="line" />
      <point x="185" y="35" />
      <point x="151" y="0" />
    </contour>
  </outline>
</glyph>
<glyph name="s" format="2">
  <unicode hex="0073" />
  <advance width="482" />
  <outline>
    <contour>
      <point x="34" y="83" type="qcurve" />
      <point x="24" y="97" />
      <point x="26" y="141" />
      <point x="51" y="157" type="qcurve" />
      <point x="67" y="167" />
      <point x="103" y="164" />
      <point x="120" y="147" type="qcurve" />
      <point x="149" y="118" />
      <point x="213" y="86" />
      <point x="261" y="86" type="qcurve" />
      <point x="276" y="87" />
      <point x="312" y="94" />
      <point x="339" y="119" />
      <point x="339" y="145" type="qcurve" />
      <point x="339" y="167" />
      <point x="309" y="193" />
      <point x="260" y="211" />
      <point x="230" y="219" type="qcurve" />
      <point x="199" y="228" />
      <point x="134" y="250" />
      <point x="80" y="285" />
      <point x="46" y="343" />
      <point x="46" y="387" type="qcurve" />
      <point x="46" y="437" />
      <point x="102" y="507" />
      <point x="191" y="545" />
      <point x="240" y="545" type="qcurve" />
      <point x="271" y="545" />
      <point x="339" y="530" />
      <point x="401" y="497" />
      <point x="422" y="470" type="qcurve" />
      <point x="433" y="455" />
      <point x="437" y="413" />
      <point x="416" y="396" type="qcurve" />
      <point x="401" y="384" />
      <point x="361" y="387" />
      <point x="348" y="399" type="qcurve" />
      <point x="331" y="421" />
      <point x="274" y="447" />
      <point x="237" y="447" type="qcurve" />
      <point x="222" y="447" />
      <point x="187" y="440" />
      <point x="161" y="417" />
      <point x="161" y="392" type="qcurve" />
      <point x="161" y="369" />
      <point x="191" y="342" />
      <point x="242" y="325" />
      <point x="271" y="317" type="qcurve" />
      <point x="301" y="309" />
      <point x="363" y="287" />
      <point x="415" y="251" />
      <point x="447" y="194" />
      <point x="447" y="150" type="qcurve" />
      <point x="447" y="99" />
      <point x="387" y="27" />
      <point x="297" y="-10" />
      <point x="250" y="-10" type="qcurve" />
      <point x="191" y="-10" />
      <point x="73" y="31" />
    </contour>
  </outline>
</glyph>
<glyph name="t" format="2">
  <unicode hex="0074" />
  <advance width="437" />
  <outline>
    <contour>
      <point x="71" y="525" type="qcurve" />
      <point x="338" y="525" type="line" />
      <point x="362" y="525" />
      <point x="394" y="493" />
      <point x="394" y="469" type="qcurve" />
      <point x="394" y="446" />
      <point x="362" y="415" />
      <point x="338" y="415" type="qcurve" />
      <point x="71" y="415" type="line" />
      <point x="47" y="415" />
      <point x="15" y="447" />
      <point x="15" y="471" type="qcurve" />
      <point x="15" y="494" />
      <point x="47" y="525" />
    </contour>
    <contour>
      <point x="178" y="650" type="qcurve" />
      <point x="204" y="650" />
      <point x="237" y="615" />
      <point x="237" y="589" type="qcurve" />
      <point x="237" y="144" type="line" />
      <point x="237" y="130" />
      <point x="258" y="112" />
      <point x="287" y="104" />
      <point x="298" y="104" type="qcurve" />
      <point x="320" y="104" />
      <point x="340" y="113" />
      <point x="353" y="113" type="qcurve" />
      <point x="367" y="113" />
      <point x="390" y="87" />
      <point x="390" y="64" type="qcurve" />
      <point x="390" y="36" />
      <point x="329" y="0" />
      <point x="284" y="0" type="qcurve" />
      <point x="263" y="0" />
      <point x="202" y="7" />
      <point x="147" y="34" />
      <point x="117" y="90" />
      <point x="117" y="139" type="qcurve" />
      <point x="117" y="589" type="line" />
      <point x="117" y="615" />
      <point x="152" y="650" />
    </contour>
  </outline>
</glyph>
<glyph name="u" format="2">
  <unicode hex="0075" />
  <advance width="587" />
  <outline>
    <contour>
      <point x="463" y="72" type="qcurve" />
      <point x="462" y="71" />
      <point x="458" y="67" type="qcurve" />
      <point x="389" y="-10" />
      <point x="293" y="-10" type="qcurve" />
      <point x="182" y="-10" />
      <point x="65" y="114" />
      <point x="65" y="220" type="qcurve" />
      <point x="65" y="474" type="line" />
      <point x="65" y="500" />
      <point x="99" y="535" />
      <point x="125" y="535" type="qcurve" />
      <point x="151" y="535" />
      <point x="185" y="500" />
      <point x="185" y="474" type="qcurve" />
      <point x="185" y="220" type="line" />
      <point x="185" y="159" />
      <point x="239" y="100" />
      <point x="293" y="100" type="qcurve" />
      <point x="340" y="100" />
      <point x="375" y="150" type="qcurve" />
      <point x="402" y="184" />
      <point x="402" y="220" type="qcurve" />
      <point x="402" y="474" type="line" />
      <point x="402" y="500" />
      <point x="436" y="535" />
      <point x="462" y="535" type="qcurve" />
      <point x="488" y="535" />
      <point x="522" y="500" />
      <point x="522" y="474" type="qcurve" />
      <point x="522" y="247" type="line" />
      <point x="522" y="220" type="line" />
      <point x="522" y="188" type="line" />
      <point x="522" y="51" type="line" />
      <point x="522" y="25" />
      <point x="488" y="-10" />
      <point x="462" y="-10" type="qcurve" />
      <point x="436" y="-10" />
      <point x="402" y="25" />
      <point x="402" y="51" type="qcurve" />
      <point x="402" y="118" type="line" />
      <point x="494" y="112" type="line" />
      <point x="498" y="108" />
    </contour>
  </outline>
</glyph>
<glyph name="v" format="2">
  <unicode hex="0076" />
  <advance width="562" />
  <outline>
    <contour>
      <point x="89" y="535" type="qcurve" />
      <point x="108" y="535" />
      <point x="140" y="516" />
      <point x="148" y="497" type="qcurve" />
      <point x="295" y="161" type="line" />
      <point x="273" y="151" type="line" />
      <point x="423" y="496" type="line" />
      <point x="440" y="536" />
      <point x="476" y="534" type="qcurve" />
      <point x="501" y="534" />
      <point x="532" y="503" />
      <point x="532" y="480" type="qcurve" />
      <point x="532" y="473" />
      <point x="527" y="457" />
      <point x="524" y="450" type="qcurve" />
      <point x="337" y="38" type="line" />
      <point x="321" y="2" />
      <point x="286" y="0" type="qcurve" />
      <point x="267" y="-3" />
      <point x="232" y="17" />
      <point x="223" y="38" type="qcurve" />
      <point x="37" y="450" type="line" />
      <point x="35" y="455" />
      <point x="30" y="471" />
      <point x="30" y="482" type="qcurve" />
      <point x="30" y="500" />
      <point x="62" y="535" />
    </contour>
  </outline>
</glyph>
<glyph name="w" format="2">
  <unicode hex="0077" />
  <advance width="768" />
  <outline>
    <contour>
      <point x="681" y="535" type="qcurve" />
      <point x="704" y="535" />
      <point x="738" y="500" />
      <point x="738" y="473" type="qcurve" />
      <point x="738" y="466" />
      <point x="736" y="455" />
      <point x="734" y="450" type="qcurve" />
      <point x="581" y="38" type="line" />
      <point x="574" y="18" />
      <point x="538" y="-3" />
      <point x="518" y="0" type="qcurve" />
      <point x="484" y="2" />
      <point x="467" y="38" type="qcurve" />
      <point x="368" y="323" type="line" />
      <point x="394" y="322" type="line" />
      <point x="301" y="38" type="line" />
      <point x="284" y="2" />
      <point x="250" y="0" type="qcurve" />
      <point x="231" y="-3" />
      <point x="194" y="18" />
      <point x="187" y="38" type="qcurve" />
      <point x="34" y="450" type="line" />
      <point x="30" y="461" />
      <point x="30" y="473" type="qcurve" />
      <point x="30" y="497" />
      <point x="62" y="535" />
      <point x="90" y="535" type="qcurve" />
      <point x="109" y="535" />
      <point x="139" y="517" />
      <point x="145" y="497" type="qcurve" />
      <point x="266" y="169" type="line" />
      <point x="241" y="171" type="line" />
      <point x="332" y="418" type="line" />
      <point x="348" y="455" />
      <point x="387" y="455" type="qcurve" />
      <point x="409" y="455" />
      <point x="432" y="436" />
      <point x="439" y="418" type="qcurve" />
      <point x="530" y="171" type="line" />
      <point x="500" y="167" type="line" />
      <point x="623" y="497" type="line" />
      <point x="635" y="535" />
    </contour>
  </outline>
</glyph>
<glyph name="x" format="2">
  <unicode hex="0078" />
  <advance width="487" />
  <outline>
    <contour>
      <point x="76" y="535" type="qcurve" />
      <point x="105" y="535" />
      <point x="125" y="510" type="qcurve" />
      <point x="459" y="95" type="line" />
      <point x="472" y="79" />
      <point x="472" y="59" type="qcurve" />
      <point x="472" y="34" />
      <point x="434" y="-2" />
      <point x="411" y="-2" type="qcurve" />
      <point x="382" y="-2" />
      <point x="362" y="24" type="qcurve" />
      <point x="28" y="439" type="line" />
      <point x="15" y="455" />
      <point x="15" y="475" type="qcurve" />
      <point x="15" y="501" />
      <point x="52" y="535" />
    </contour>
    <contour>
      <point x="362" y="508" type="line" />
      <point x="382" y="535" />
      <point x="410" y="535" type="qcurve" />
      <point x="434" y="535" />
      <point x="467" y="502" />
      <point x="467" y="481" type="qcurve" />
      <point x="467" y="471" />
      <point x="461" y="451" />
      <point x="453" y="442" type="qcurve" />
      <point x="125" y="24" type="line" />
      <point x="106" y="-1" />
      <point x="77" y="-1" type="qcurve" />
      <point x="57" y="-1" />
      <point x="18" y="30" />
      <point x="18" y="52" type="qcurve" />
      <point x="18" y="72" />
      <point x="33" y="90" type="qcurve" />
    </contour>
  </outline>
</glyph>
<glyph name="y" format="2">
  <unicode hex="0079" />
  <advance width="562" />
  <outline>
    <contour>
      <point x="218" y="48" type="line" />
      <point x="37" y="450" type="line" />
      <point x="35" y="455" />
      <point x="30" y="471" />
      <point x="30" y="482" type="qcurve" />
      <point x="30" y="500" />
      <point x="62" y="535" />
      <point x="89" y="535" type="qcurve" />
      <point x="108" y="535" />
      <point x="140" y="516" />
      <point x="148" y="497" type="qcurve" />
      <point x="295" y="161" type="line" />
      <point x="273" y="151" type="line" />
      <point x="423" y="496" type="line" />
      <point x="440" y="536" />
      <point x="476" y="534" type="qcurve" />
      <point x="501" y="534" />
      <point x="532" y="503" />
      <point x="532" y="480" type="qcurve" />
      <point x="532" y="473" />
      <point x="527" y="457" />
      <point x="524" y="450" type="qcurve" />
      <point x="347" y="60" type="line" />
      <point x="305" y="-33" type="line" />
      <point x="276" y="-100" />
      <point x="272" y="-108" type="qcurve" />
      <point x="249" y="-152" />
      <point x="213" y="-173" type="qcurve" />
      <point x="175" y="-196" />
      <point x="130" y="-196" type="qcurve" />
      <point x="105" y="-196" />
      <point x="90" y="-180" type="qcurve" />
      <point x="74" y="-162" />
      <point x="74" y="-140" type="qcurve" />
      <point x="74" y="-139" type="line" />
      <point x="74" y="-129" />
      <point x="88" y="-116" type="qcurve" />
      <point x="104" y="-102" />
      <point x="125" y="-96" type="qcurve" />
      <point x="149" y="-89" />
      <point x="159" y="-74" type="qcurve" />
      <point x="177" y="-48" />
      <point x="208" y="25" type="qcurve" />
      <point x="215" y="41" type="line" />
    </contour>
  </outline>
</glyph>
<glyph name="z" format="2">
  <unicode hex="007A" />
  <advance width="484" />
  <outline>
    <contour>
      <point x="406" y="110" type="line" />
      <point x="430" y="110" />
      <point x="462" y="79" />
      <point x="462" y="55" type="qcurve" />
      <point x="462" y="32" />
      <point x="430" y="0" />
      <point x="406" y="0" type="qcurve" />
      <point x="84" y="0" type="line" />
      <point x="59" y="0" />
      <point x="29" y="36" />
      <point x="30" y="54" type="qcurve" />
      <point x="31" y="69" />
      <point x="37" y="92" />
      <point x="49" y="107" type="qcurve" />
      <point x="298" y="429" type="line" />
      <point x="296" y="415" type="line" />
      <point x="93" y="415" type="line" />
      <point x="69" y="415" />
      <point x="37" y="447" />
      <point x="37" y="471" type="qcurve" />
      <point x="37" y="494" />
      <point x="69" y="525" />
      <point x="93" y="525" type="qcurve" />
      <point x="401" y="525" type="line" />
      <point x="424" y="525" />
      <point x="456" y="491" />
      <point x="454" y="465" type="qcurve" />
      <point x="453" y="455" />
      <point x="448" y="435" />
      <point x="437" y="421" type="qcurve" />
      <point x="192" y="104" type="line" />
      <point x="192" y="110" type="line" />
    </contour>
  </outline>
</glyph>
<glyph name="braceleft" format="2">
  <unicode hex="007B" />
  <advance width="401" />
  <outline>
    <contour>
      <point x="345" y="-202" type="qcurve" />
      <point x="341" y="-202" />
      <point x="334" y="-202" />
      <point x="330" y="-201" type="qcurve" />
      <point x="257" y="-186" />
      <point x="178" y="-133" />
      <point x="147" y="-57" />
      <point x="147" y="-10" type="qcurve" />
      <point x="149" y="92" type="line" />
      <point x="149" y="130" />
      <point x="126" y="178" />
      <point x="86" y="201" />
      <point x="60" y="202" type="qcurve" />
      <point x="56" y="202" type="line" />
      <point x="37" y="202" />
      <point x="10" y="228" />
      <point x="10" y="248" type="qcurve" />
      <point x="10" y="268" />
      <point x="37" y="294" />
      <point x="56" y="294" type="qcurve" />
      <point x="62" y="294" type="line" />
      <point x="87" y="296" />
      <point x="126" y="319" />
      <point x="149" y="367" />
      <point x="149" y="404" type="qcurve" />
      <point x="147" y="506" type="line" />
      <point x="147" y="541" />
      <point x="164" y="602" />
      <point x="204" y="650" />
      <point x="275" y="686" />
      <point x="330" y="697" type="qcurve" />
      <point x="358" y="702" />
      <point x="386" y="673" />
      <point x="386" y="653" type="qcurve" />
      <point x="386" y="640" />
      <point x="367" y="618" />
      <point x="352" y="613" type="qcurve" />
      <point x="312" y="599" />
      <point x="272" y="566" />
      <point x="259" y="521" />
      <point x="259" y="489" type="qcurve" />
      <point x="261" y="385" type="line" />
      <point x="261" y="327" />
      <point x="203" y="262" />
      <point x="153" y="246" type="qcurve" />
      <point x="153" y="250" type="line" />
      <point x="203" y="234" />
      <point x="261" y="169" />
      <point x="261" y="111" type="qcurve" />
      <point x="259" y="7" type="line" />
      <point x="259" y="-24" />
      <point x="272" y="-68" />
      <point x="312" y="-101" />
      <point x="352" y="-117" type="qcurve" />
      <point x="386" y="-130" />
      <point x="386" y="-159" type="qcurve" />
      <point x="386" y="-176" />
      <point x="362" y="-202" />
    </contour>
  </outline>
</glyph>
<glyph name="bar" format="2">
  <unicode hex="007C" />
  <advance width="248" />
  <outline>
    <contour>
      <point x="184" y="-64" type="line" />
      <point x="184" y="-90" />
      <point x="149" y="-125" />
      <point x="123" y="-125" type="qcurve" />
      <point x="98" y="-125" />
      <point x="64" y="-90" />
      <point x="64" y="-64" type="qcurve" />
      <point x="64" y="740" type="line" />
      <point x="64" y="766" />
      <point x="99" y="801" />
      <point x="125" y="801" type="qcurve" />
      <point x="151" y="801" />
      <point x="184" y="766" />
      <point x="184" y="740" type="qcurve" />
    </contour>
  </outline>
</glyph>
<glyph name="braceright" format="2">
  <unicode hex="007D" />
  <advance width="401" />
  <outline>
    <contour>
      <point x="54" y="-191" type="qcurve" />
      <point x="35" y="-191" />
      <point x="15" y="-158" />
      <point x="15" y="-145" type="qcurve" />
      <point x="15" y="-131" />
      <point x="34" y="-110" />
      <point x="49" y="-105" type="qcurve" />
      <point x="90" y="-91" />
      <point x="110" y="-74" type="qcurve" />
      <point x="127" y="-60" />
      <point x="136" y="-30" type="qcurve" />
      <point x="143" y="-7" />
      <point x="142" y="29" type="qcurve" />
      <point x="140" y="143" type="line" />
      <point x="139" y="211" />
      <point x="170" y="244" type="qcurve" />
      <point x="199" y="276" />
      <point x="248" y="292" type="qcurve" />
      <point x="248" y="288" type="line" />
      <point x="199" y="305" />
      <point x="170" y="337" type="qcurve" />
      <point x="139" y="370" />
      <point x="140" y="437" type="qcurve" />
      <point x="142" y="551" type="line" />
      <point x="143" y="581" />
      <point x="136" y="605" type="qcurve" />
      <point x="129" y="626" />
      <point x="89" y="660" />
      <point x="49" y="675" type="qcurve" />
      <point x="15" y="688" />
      <point x="15" y="717" type="qcurve" />
      <point x="15" y="734" />
      <point x="39" y="760" />
      <point x="56" y="760" type="qcurve" />
      <point x="60" y="760" />
      <point x="67" y="760" />
      <point x="71" y="759" type="qcurve" />
      <point x="144" y="745" />
      <point x="223" y="691" />
      <point x="239" y="653" type="qcurve" />
      <point x="255" y="613" />
      <point x="254" y="568" type="qcurve" />
      <point x="252" y="456" type="line" />
      <point x="251" y="408" />
      <point x="264" y="384" type="qcurve" />
      <point x="275" y="360" />
      <point x="296" y="349" type="qcurve" />
      <point x="318" y="336" />
      <point x="341" y="336" type="qcurve" />
      <point x="345" y="336" type="line" />
      <point x="364" y="336" />
      <point x="391" y="310" />
      <point x="391" y="290" type="qcurve" />
      <point x="391" y="270" />
      <point x="364" y="244" />
      <point x="345" y="244" type="qcurve" />
      <point x="339" y="244" type="line" />
      <point x="316" y="244" />
      <point x="295" y="231" type="qcurve" />
      <point x="275" y="219" />
      <point x="264" y="196" type="qcurve" />
      <point x="251" y="172" />
      <point x="252" y="124" type="qcurve" />
      <point x="254" y="12" type="line" />
      <point x="254" y="-18" />
      <point x="251" y="-41" type="qcurve" />
      <point x="249" y="-53" />
      <point x="246" y="-63" type="qcurve" />
      <point x="241" y="-83" />
      <point x="231" y="-99" type="qcurve" />
      <point x="225" y="-109" />
      <point x="218" y="-118" type="qcurve" />
      <point x="208" y="-130" />
      <point x="194" y="-140" type="qcurve" />
      <point x="180" y="-151" />
      <point x="162" y="-160" type="qcurve" />
      <point x="116" y="-183" />
      <point x="64" y="-190" type="qcurve" />
      <point x="60" y="-191" />
    </contour>
  </outline>
</glyph>
<glyph name="asciitilde" format="2">
  <unicode hex="007E" />
  <advance width="540" />
  <outline>
    <contour>
      <point x="376" y="235" type="qcurve" />
      <point x="355" y="235" />
      <point x="294" y="254" />
      <point x="228" y="278" />
      <point x="174" y="297" />
      <point x="160" y="297" type="qcurve" />
      <point x="150" y="297" />
      <point x="137" y="286" />
      <point x="140" y="276" type="qcurve" />
      <point x="147" y="254" />
      <point x="123" y="227" />
      <point x="105" y="227" type="qcurve" />
      <point x="83" y="227" />
      <point x="50" y="271" />
      <point x="50" y="308" type="qcurve" />
      <point x="50" y="343" />
      <point x="77" y="386" />
      <point x="131" y="406" />
      <point x="173" y="406" type="qcurve" />
      <point x="194" y="406" />
      <point x="253" y="387" />
      <point x="315" y="363" />
      <point x="367" y="344" />
      <point x="380" y="344" type="qcurve" />
      <point x="391" y="344" />
      <point x="403" y="355" />
      <point x="400" y="365" type="qcurve" />
      <point x="393" y="388" />
      <point x="417" y="414" />
      <point x="435" y="414" type="qcurve" />
      <point x="458" y="414" />
      <point x="490" y="376" />
      <point x="490" y="345" type="qcurve" />
      <point x="490" y="290" />
      <point x="439" y="235" />
    </contour>
  </outline>
</glyph>
<glyph name="exclamdown" format="2">
  <unicode hex="00A1" />
  <advance width="267" />
  <outline>
    <contour>
      <point x="133" y="320" type="qcurve" />
      <point x="167" y="320" />
      <point x="170" y="282" type="qcurve" />
      <point x="199" y="-86" type="line" />
      <point x="201" y="-117" />
      <point x="164" y="-159" />
      <point x="134" y="-159" type="qcurve" />
      <point x="104" y="-159" />
      <point x="66" y="-117" />
      <point x="69" y="-86" type="qcurve" />
      <point x="97" y="282" type="line" />
      <point x="100" y="320" />
    </contour>
    <contour>
      <point x="140" y="541" type="line" />
      <point x="169" y="541" />
      <point x="200" y="510" />
      <point x="200" y="481" type="qcurve" />
      <point x="200" y="464" type="line" />
      <point x="200" y="435" />
      <point x="169" y="404" />
      <point x="140" y="404" type="qcurve" />
      <point x="127" y="404" type="line" />
      <point x="98" y="404" />
      <point x="67" y="435" />
      <point x="67" y="464" type="qcurve" />
      <point x="67" y="481" type="line" />
      <point x="67" y="510" />
      <point x="98" y="541" />
      <point x="127" y="541" type="qcurve" />
    </contour>
  </outline>
</glyph>
<glyph name="cent" format="2">
  <unicode hex="00A2" />
  <advance width="515" />
  <outline>
    <contour>
      <point x="348" y="61" type="line" />
      <point x="348" y="35" />
      <point x="313" y="0" />
      <point x="287" y="0" type="qcurve" />
      <point x="262" y="0" />
      <point x="228" y="35" />
      <point x="228" y="61" type="qcurve" />
      <point x="228" y="113" type="line" />
      <point x="238" y="157" type="line" />
      <point x="238" y="557" type="line" />
      <point x="228" y="612" type="line" />
      <point x="228" y="659" type="line" />
      <point x="228" y="685" />
      <point x="263" y="720" />
      <point x="289" y="720" type="qcurve" />
      <point x="315" y="720" />
      <point x="348" y="685" />
      <point x="348" y="659" type="qcurve" />
      <point x="348" y="609" type="line" />
      <point x="338" y="568" type="line" />
      <point x="338" y="157" type="line" />
      <point x="348" y="113" type="line" />
    </contour>
    <contour>
      <point x="293" y="80" type="qcurve" />
      <point x="214" y="80" />
      <point x="98" y="153" />
      <point x="35" y="279" />
      <point x="35" y="357" type="qcurve" />
      <point x="35" y="439" />
      <point x="102" y="564" />
      <point x="221" y="635" />
      <point x="298" y="635" type="qcurve" />
      <point x="355" y="635" />
      <point x="440" y="611" />
      <point x="487" y="568" />
      <point x="487" y="538" type="qcurve" />
      <point x="487" y="518" />
      <point x="461" y="481" />
      <point x="433" y="481" type="qcurve" />
      <point x="420" y="481" />
      <point x="401" y="488" />
      <point x="385" y="502" />
      <point x="376" y="512" type="qcurve" />
      <point x="360" y="530" />
      <point x="321" y="536" />
      <point x="292" y="536" type="qcurve" />
      <point x="253" y="536" />
      <point x="191" y="492" />
      <point x="155" y="412" />
      <point x="155" y="357" type="qcurve" />
      <point x="155" y="303" />
      <point x="193" y="222" />
      <point x="259" y="176" />
      <point x="299" y="176" type="qcurve" />
      <point x="331" y="176" />
      <point x="368" y="188" />
      <point x="381" y="202" type="qcurve" />
      <point x="392" y="213" />
      <point x="417" y="231" />
      <point x="439" y="231" type="qcurve" />
      <point x="465" y="231" />
      <point x="493" y="195" />
      <point x="493" y="171" type="qcurve" />
      <point x="493" y="146" />
      <point x="437" y="105" />
      <point x="346" y="80" />
    </contour>
  </outline>
</glyph>
<glyph name="sterling" format="2">
  <unicode hex="00A3" />
  <advance width="624" />
  <outline>
    <contour>
      <point x="82" y="318" type="line" />
      <point x="59" y="318" />
      <point x="28" y="349" />
      <point x="28" y="372" type="qcurve" />
      <point x="28" y="394" />
      <point x="59" y="422" />
      <point x="82" y="422" type="qcurve" />
      <point x="370" y="422" type="line" />
      <point x="393" y="422" />
      <point x="424" y="391" />
      <point x="424" y="368" type="qcurve" />
      <point x="424" y="346" />
      <point x="393" y="318" />
      <point x="370" y="318" type="qcurve" />
    </contour>
    <contour>
      <point x="204" y="137" type="qcurve" />
      <point x="245" y="137" />
      <point x="325" y="112" />
      <point x="402" y="87" />
      <point x="437" y="87" type="qcurve" />
      <point x="454" y="87" />
      <point x="500" y="103" />
      <point x="514" y="110" type="qcurve" />
      <point x="523" y="115" />
      <point x="546" y="122" />
      <point x="555" y="122" type="qcurve" />
      <point x="579" y="122" />
      <point x="604" y="90" />
      <point x="604" y="68" type="qcurve" />
      <point x="604" y="42" />
      <point x="566" y="5" />
      <point x="525" y="-9" type="qcurve" />
      <point x="506" y="-16" />
      <point x="456" y="-21" />
      <point x="436" y="-20" type="qcurve" />
      <point x="412" y="-19" />
      <point x="342" y="-4" />
      <point x="268" y="15" />
      <point x="204" y="29" />
      <point x="186" y="29" type="qcurve" />
      <point x="174" y="29" />
      <point x="146" y="27" />
      <point x="121" y="23" />
      <point x="111" y="20" type="qcurve" />
      <point x="94" y="15" />
      <point x="74" y="0" />
      <point x="57" y="0" type="qcurve" />
      <point x="39" y="0" />
      <point x="11" y="27" />
      <point x="11" y="50" type="qcurve" />
      <point x="11" y="73" />
      <point x="39" y="107" />
      <point x="64" y="117" type="qcurve" />
      <point x="84" y="125" />
      <point x="134" y="134" />
      <point x="185" y="137" />
    </contour>
    <contour>
      <point x="203" y="72" type="qcurve" />
      <point x="109" y="95" type="line" />
      <point x="122" y="103" />
      <point x="143" y="137" />
      <point x="156" y="186" />
      <point x="156" y="217" type="qcurve" />
      <point x="156" y="257" />
      <point x="136" y="332" />
      <point x="111" y="401" />
      <point x="91" y="465" />
      <point x="91" y="494" type="qcurve" />
      <point x="91" y="557" />
      <point x="146" y="654" />
      <point x="249" y="710" />
      <point x="321" y="710" type="qcurve" />
      <point x="362" y="710" />
      <point x="434" y="691" />
      <point x="462" y="675" type="qcurve" />
      <point x="488" y="660" />
      <point x="519" y="624" />
      <point x="519" y="604" type="qcurve" />
      <point x="519" y="579" />
      <point x="483" y="543" />
      <point x="459" y="543" type="qcurve" />
      <point x="446" y="543" />
      <point x="422" y="553" />
      <point x="415" y="560" type="qcurve" />
      <point x="396" y="578" />
      <point x="351" y="596" />
      <point x="322" y="596" type="qcurve" />
      <point x="287" y="596" />
      <point x="239" y="565" />
      <point x="215" y="517" />
      <point x="215" y="491" type="qcurve" />
      <point x="215" y="469" />
      <point x="235" y="409" />
      <point x="260" y="342" />
      <point x="280" y="276" />
      <point x="280" y="248" type="qcurve" />
      <point x="280" y="209" />
      <point x="255" y="144" />
      <point x="219" y="92" />
    </contour>
  </outline>
</glyph>
<glyph name="currency" format="2">
  <unicode hex="00A4" />
  <advance width="579" />
  <outline>
    <contour>
      <point x="128" y="529" type="qcurve" />
      <point x="150" y="529" />
      <point x="171" y="508" type="qcurve" />
      <point x="240" y="438" type="line" />
      <point x="226" y="424" />
      <point x="196" y="394" />
      <point x="167" y="365" />
      <point x="152" y="350" type="qcurve" />
      <point x="84" y="419" type="line" />
      <point x="63" y="440" />
      <point x="63" y="462" type="qcurve" />
      <point x="63" y="476" />
      <point x="83" y="507" />
      <point x="113" y="529" />
    </contour>
    <contour>
      <point x="445" y="527" type="qcurve" />
      <point x="461" y="527" />
      <point x="491" y="508" />
      <point x="512" y="478" />
      <point x="512" y="463" type="qcurve" />
      <point x="512" y="441" />
      <point x="491" y="420" type="qcurve" />
      <point x="420" y="350" type="line" />
      <point x="406" y="365" />
      <point x="377" y="394" />
      <point x="348" y="423" />
      <point x="333" y="437" type="qcurve" />
      <point x="403" y="507" type="line" />
      <point x="423" y="527" />
    </contour>
    <contour>
      <point x="446" y="78" type="qcurve" />
      <point x="425" y="78" />
      <point x="403" y="100" type="qcurve" />
      <point x="335" y="167" type="line" />
      <point x="350" y="182" />
      <point x="379" y="211" />
      <point x="409" y="241" />
      <point x="423" y="255" type="qcurve" />
      <point x="490" y="187" type="line" />
      <point x="510" y="167" />
      <point x="510" y="145" type="qcurve" />
      <point x="510" y="131" />
      <point x="491" y="99" />
      <point x="461" y="78" />
    </contour>
    <contour>
      <point x="128" y="80" type="qcurve" />
      <point x="114" y="80" />
      <point x="83" y="100" />
      <point x="62" y="129" />
      <point x="62" y="144" type="qcurve" />
      <point x="62" y="166" />
      <point x="84" y="188" type="qcurve" />
      <point x="155" y="259" type="line" />
      <point x="170" y="245" />
      <point x="199" y="216" />
      <point x="228" y="187" />
      <point x="242" y="172" type="qcurve" />
      <point x="171" y="101" type="line" />
      <point x="150" y="80" />
    </contour>
    <contour>
      <point x="289" y="113" type="qcurve" />
      <point x="237" y="113" />
      <point x="151" y="164" />
      <point x="100" y="251" />
      <point x="100" y="303" type="qcurve" />
      <point x="100" y="356" />
      <point x="151" y="442" />
      <point x="237" y="493" />
      <point x="289" y="493" type="qcurve" />
      <point x="342" y="493" />
      <point x="428" y="442" />
      <point x="479" y="356" />
      <point x="479" y="303" type="qcurve" />
      <point x="479" y="251" />
      <point x="428" y="164" />
      <point x="342" y="113" />
    </contour>
    <contour>
      <point x="290" y="224" type="qcurve" />
      <point x="313" y="224" />
      <point x="343" y="245" />
      <point x="359" y="281" />
      <point x="359" y="303" type="qcurve" />
      <point x="359" y="326" />
      <point x="343" y="362" />
      <point x="313" y="383" />
      <point x="290" y="383" type="qcurve" />
      <point x="268" y="383" />
      <point x="236" y="362" />
      <point x="220" y="326" />
      <point x="220" y="303" type="qcurve" />
      <point x="220" y="281" />
      <point x="236" y="245" />
      <point x="268" y="224" />
    </contour>
  </outline>
</glyph>
<glyph name="yen" format="2">
  <unicode hex="00A5" />
  <advance width="596" />
  <outline>
    <contour>
      <point x="164" y="114" type="line" />
      <point x="138" y="114" />
      <point x="103" y="144" />
      <point x="103" y="167" type="qcurve" />
      <point x="103" y="190" />
      <point x="138" y="219" />
      <point x="164" y="219" type="qcurve" />
      <point x="458" y="219" type="line" />
      <point x="484" y="219" />
      <point x="519" y="190" />
      <point x="519" y="167" type="qcurve" />
      <point x="519" y="144" />
      <point x="484" y="114" />
      <point x="458" y="114" type="qcurve" />
    </contour>
    <contour>
      <point x="162" y="258" type="line" />
      <point x="136" y="258" />
      <point x="101" y="288" />
      <point x="101" y="311" type="qcurve" />
      <point x="101" y="334" />
      <point x="136" y="363" />
      <point x="162" y="363" type="qcurve" />
      <point x="456" y="363" type="line" />
      <point x="482" y="363" />
      <point x="517" y="334" />
      <point x="517" y="311" type="qcurve" />
      <point x="517" y="288" />
      <point x="482" y="258" />
      <point x="456" y="258" type="qcurve" />
    </contour>
    <contour>
      <point x="521" y="703" type="qcurve" />
      <point x="544" y="703" />
      <point x="581" y="668" />
      <point x="581" y="641" type="qcurve" />
      <point x="581" y="632" />
      <point x="576" y="613" />
      <point x="570" y="604" type="qcurve" />
      <point x="350" y="279" type="line" />
      <point x="368" y="348" type="line" />
      <point x="368" y="61" type="line" />
      <point x="368" y="35" />
      <point x="332" y="0" />
      <point x="303" y="0" type="qcurve" />
      <point x="275" y="0" />
      <point x="238" y="35" />
      <point x="238" y="61" type="qcurve" />
      <point x="238" y="340" type="line" />
      <point x="246" y="308" type="line" />
      <point x="35" y="595" type="line" />
      <point x="25" y="608" />
      <point x="17" y="632" />
      <point x="17" y="642" type="qcurve" />
      <point x="17" y="660" />
      <point x="40" y="688" />
      <point x="73" y="703" />
      <point x="87" y="703" type="qcurve" />
      <point x="117" y="703" />
      <point x="136" y="675" type="qcurve" />
      <point x="324" y="385" type="line" />
      <point x="296" y="389" type="line" />
      <point x="471" y="673" type="line" />
      <point x="480" y="688" />
      <point x="508" y="703" />
    </contour>
  </outline>
</glyph>
<glyph name="brokenbar" format="2">
  <unicode hex="00A6" />
  <advance width="258" />
  <outline>
    <contour>
      <point x="189" y="467" type="line" />
      <point x="189" y="441" />
      <point x="154" y="406" />
      <point x="128" y="406" type="qcurve" />
      <point x="103" y="406" />
      <point x="69" y="441" />
      <point x="69" y="467" type="qcurve" />
      <point x="69" y="740" type="line" />
      <point x="69" y="766" />
      <point x="104" y="801" />
      <point x="130" y="801" type="qcurve" />
      <point x="156" y="801" />
      <point x="189" y="766" />
      <point x="189" y="740" type="qcurve" />
    </contour>
    <contour>
      <point x="189" y="-64" type="line" />
      <point x="189" y="-90" />
      <point x="154" y="-125" />
      <point x="128" y="-125" type="qcurve" />
      <point x="103" y="-125" />
      <point x="69" y="-90" />
      <point x="69" y="-64" type="qcurve" />
      <point x="69" y="209" type="line" />
      <point x="69" y="235" />
      <point x="104" y="270" />
      <point x="130" y="270" type="qcurve" />
      <point x="156" y="270" />
      <point x="189" y="235" />
      <point x="189" y="209" type="qcurve" />
    </contour>
  </outline>
</glyph>
<glyph name="section" format="2">
  <unicode hex="00A7" />
  <advance width="559" />
  <outline>
    <contour>
      <point x="529" y="278" type="qcurve" />
      <point x="523" y="196" />
      <point x="408" y="128" />
      <point x="301" y="123" type="qcurve" />
      <point x="393" y="196" type="line" />
      <point x="443" y="165" />
      <point x="495" y="104" />
      <point x="495" y="49" type="qcurve" />
      <point x="495" y="32" />
      <point x="478" y="-30" />
      <point x="434" y="-95" />
      <point x="350" y="-140" />
      <point x="282" y="-140" type="qcurve" />
      <point x="242" y="-140" />
      <point x="153" y="-122" />
      <point x="76" y="-88" />
      <point x="55" y="-64" type="qcurve" />
      <point x="42" y="-50" />
      <point x="29" y="-16" />
      <point x="30" y="5" type="qcurve" />
      <point x="32" y="27" />
      <point x="65" y="56" />
      <point x="88" y="56" type="qcurve" />
      <point x="96" y="56" />
      <point x="122" y="49" />
      <point x="137" y="32" type="qcurve" />
      <point x="151" y="16" />
      <point x="185" y="-12" />
      <point x="239" y="-29" />
      <point x="282" y="-29" type="qcurve" />
      <point x="300" y="-29" />
      <point x="333" y="-23" />
      <point x="359" y="-10" />
      <point x="373" y="10" />
      <point x="373" y="23" type="qcurve" />
      <point x="373" y="46" />
      <point x="326" y="76" />
      <point x="246" y="98" />
      <point x="198" y="109" type="qcurve" />
      <point x="118" y="127" />
      <point x="40" y="212" />
      <point x="40" y="276" type="qcurve" />
      <point x="40" y="289" />
      <point x="49" y="338" />
      <point x="80" y="391" />
      <point x="143" y="431" />
      <point x="197" y="435" type="qcurve" />
      <point x="182" y="377" type="line" />
      <point x="127" y="401" />
      <point x="88" y="471" />
      <point x="88" y="511" type="qcurve" />
      <point x="88" y="565" />
      <point x="131" y="644" />
      <point x="200" y="694" />
      <point x="279" y="716" />
      <point x="315" y="714" type="qcurve" />
      <point x="374" y="710" />
      <point x="464" y="663" />
      <point x="496" y="619" type="qcurve" />
      <point x="503" y="610" />
      <point x="503" y="587" type="qcurve" />
      <point x="503" y="565" />
      <point x="472" y="530" />
      <point x="440" y="532" type="qcurve" />
      <point x="433" y="532" />
      <point x="426" y="539" type="qcurve" />
      <point x="400" y="568" />
      <point x="334" y="597" />
      <point x="299" y="597" type="qcurve" />
      <point x="272" y="597" />
      <point x="232" y="580" />
      <point x="210" y="551" />
      <point x="210" y="532" type="qcurve" />
      <point x="210" y="513" />
      <point x="236" y="485" />
      <point x="276" y="465" />
      <point x="322" y="452" />
      <point x="343" y="448" type="qcurve" />
      <point x="441" y="429" />
      <point x="534" y="342" />
    </contour>
    <contour>
      <point x="232" y="232" type="qcurve" />
      <point x="340" y="205" type="line" />
      <point x="359" y="204" />
      <point x="389" y="217" />
      <point x="407" y="243" />
      <point x="407" y="261" type="qcurve" />
      <point x="407" y="278" />
      <point x="388" y="301" />
      <point x="371" y="307" type="qcurve" />
      <point x="247" y="339" type="line" />
      <point x="231" y="345" />
      <point x="196" y="338" />
      <point x="173" y="312" />
      <point x="173" y="289" type="qcurve" />
      <point x="173" y="279" />
      <point x="192" y="246" />
    </contour>
  </outline>
</glyph>
<glyph name="copyright" format="2">
  <unicode hex="00A9" />
  <advance width="780" />
  <outline>
    <contour>
      <point x="390" y="-10" type="qcurve" />
      <point x="316" y="-10" />
      <point x="185" y="46" />
      <point x="86" y="145" />
      <point x="30" y="276" />
      <point x="30" y="350" type="qcurve" />
      <point x="30" y="425" />
      <point x="86" y="555" />
      <point x="185" y="654" />
      <point x="316" y="710" />
      <point x="390" y="710" type="qcurve" />
      <point x="464" y="710" />
      <point x="595" y="654" />
      <point x="694" y="555" />
      <point x="750" y="425" />
      <point x="750" y="350" type="qcurve" />
      <point x="750" y="276" />
      <point x="694" y="145" />
      <point x="595" y="46" />
      <point x="464" y="-10" />
    </contour>
    <contour>
      <point x="390" y="64" type="qcurve" />
      <point x="449" y="64" />
      <point x="553" y="108" />
      <point x="632" y="187" />
      <point x="676" y="291" />
      <point x="676" y="350" type="qcurve" />
      <point x="676" y="410" />
      <point x="632" y="513" />
      <point x="553" y="592" />
      <point x="449" y="636" />
      <point x="390" y="636" type="qcurve" />
      <point x="331" y="636" />
      <point x="228" y="592" />
      <point x="149" y="513" />
      <point x="104" y="410" />
      <point x="104" y="350" type="qcurve" />
      <point x="104" y="291" />
      <point x="148" y="187" />
      <point x="227" y="108" />
      <point x="331" y="64" />
    </contour>
    <contour>
      <point x="407" y="136" type="qcurve" />
      <point x="353" y="136" />
      <point x="251" y="187" />
      <point x="186" y="283" />
      <point x="186" y="350" type="qcurve" />
      <point x="186" y="408" />
      <point x="246" y="505" />
      <point x="347" y="564" />
      <point x="407" y="564" type="qcurve" />
      <point x="462" y="564" />
      <point x="507" y="540" type="qcurve" />
      <point x="527" y="531" />
      <point x="533" y="488" />
      <point x="521" y="472" type="qcurve" />
      <point x="511" y="459" />
      <point x="479" y="455" />
      <point x="465" y="462" type="qcurve" />
      <point x="452" y="468" />
      <point x="423" y="474" />
      <point x="407" y="474" type="qcurve" />
      <point x="371" y="474" />
      <point x="312" y="440" />
      <point x="276" y="384" />
      <point x="276" y="350" type="qcurve" />
      <point x="276" y="311" />
      <point x="314" y="255" />
      <point x="374" y="226" />
      <point x="407" y="226" type="qcurve" />
      <point x="422" y="226" />
      <point x="451" y="232" />
      <point x="465" y="238" type="qcurve" />
      <point x="479" y="245" />
      <point x="511" y="240" />
      <point x="521" y="227" type="qcurve" />
      <point x="535" y="209" />
      <point x="526" y="168" />
      <point x="508" y="159" type="qcurve" />
      <point x="484" y="147" />
      <point x="433" y="136" />
    </contour>
  </outline>
</glyph>
<glyph name="ordfeminine" format="2">
  <unicode hex="00AA" />
  <advance width="354" />
  <outline>
    <contour>
      <point x="139" y="391" type="qcurve" />
      <point x="96" y="391" />
      <point x="38" y="438" />
      <point x="10" y="518" />
      <point x="10" y="565" type="qcurve" />
      <point x="10" y="609" />
      <point x="44" y="682" />
      <point x="108" y="725" />
      <point x="153" y="725" type="qcurve" />
      <point x="199" y="725" />
      <point x="248" y="662" />
      <point x="248" y="596" type="qcurve" />
      <point x="234" y="657" type="line" />
      <point x="234" y="684" type="line" />
      <point x="234" y="699" />
      <point x="262" y="724" />
      <point x="284" y="724" type="qcurve" />
      <point x="307" y="724" />
      <point x="334" y="700" />
      <point x="334" y="684" type="qcurve" />
      <point x="334" y="441" type="line" />
      <point x="334" y="423" />
      <point x="304" y="401" />
      <point x="284" y="401" type="qcurve" />
      <point x="262" y="401" />
      <point x="234" y="424" />
      <point x="234" y="441" type="qcurve" />
      <point x="234" y="474" type="line" />
      <point x="248" y="516" type="line" />
      <point x="248" y="491" />
      <point x="223" y="433" />
      <point x="174" y="391" />
    </contour>
    <contour>
      <point x="177" y="469" type="qcurve" />
      <point x="201" y="469" />
      <point x="238" y="514" />
      <point x="238" y="555" type="qcurve" />
      <point x="238" y="597" />
      <point x="205" y="647" />
      <point x="173" y="647" type="qcurve" />
      <point x="147" y="647" />
      <point x="110" y="598" />
      <point x="110" y="565" type="qcurve" />
      <point x="110" y="526" />
      <point x="142" y="469" />
    </contour>
  </outline>
</glyph>
<glyph name="logicalnot" format="2">
  <unicode hex="00AC" />
  <advance width="682" />
  <outline>
    <contour>
      <point x="566" y="130" type="qcurve" />
      <point x="539" y="130" />
      <point x="502" y="164" />
      <point x="502" y="191" type="qcurve" />
      <point x="502" y="320" type="line" />
      <point x="522" y="306" type="line" />
      <point x="101" y="306" type="line" />
      <point x="79" y="306" />
      <point x="50" y="340" />
      <point x="50" y="367" type="qcurve" />
      <point x="50" y="393" />
      <point x="79" y="426" />
      <point x="101" y="426" type="qcurve" />
      <point x="581" y="426" type="line" />
      <point x="604" y="426" />
      <point x="632" y="398" />
      <point x="632" y="375" type="qcurve" />
      <point x="632" y="191" type="line" />
      <point x="632" y="164" />
      <point x="595" y="130" />
    </contour>
  </outline>
</glyph>
<glyph name="registered" format="2">
  <unicode hex="00AE" />
  <advance width="490" />
  <outline>
    <contour>
      <point x="181" y="363" type="qcurve" />
      <point x="170" y="363" />
      <point x="155" y="378" />
      <point x="155" y="391" type="qcurve" />
      <point x="155" y="581" type="line" />
      <point x="155" y="589" />
      <point x="167" y="602" />
      <point x="176" y="602" type="qcurve" />
      <point x="261" y="602" type="line" />
      <point x="289" y="602" />
      <point x="331" y="560" />
      <point x="331" y="528" type="qcurve" />
      <point x="331" y="511" />
      <point x="306" y="479" />
      <point x="292" y="471" type="qcurve" />
      <point x="292" y="475" type="line" />
      <point x="305" y="466" />
      <point x="319" y="443" />
      <point x="320" y="432" type="qcurve" />
      <point x="321" y="420" />
      <point x="324" y="404" />
      <point x="330" y="399" type="qcurve" />
      <point x="338" y="393" />
      <point x="338" y="373" />
      <point x="332" y="368" type="qcurve" />
      <point x="323" y="361" />
      <point x="304" y="363" />
      <point x="297" y="367" type="qcurve" />
      <point x="289" y="372" />
      <point x="272" y="398" />
      <point x="272" y="426" type="qcurve" />
      <point x="272" y="440" />
      <point x="258" y="456" />
      <point x="237" y="456" type="qcurve" />
      <point x="198" y="456" type="line" />
      <point x="206" y="465" type="line" />
      <point x="206" y="391" type="line" />
      <point x="206" y="378" />
      <point x="192" y="363" />
    </contour>
    <contour>
      <point x="250" y="499" type="line" />
      <point x="264" y="499" />
      <point x="283" y="515" />
      <point x="283" y="527" type="qcurve" />
      <point x="283" y="539" />
      <point x="264" y="553" />
      <point x="250" y="553" type="qcurve" />
      <point x="200" y="553" type="line" />
      <point x="206" y="559" type="line" />
      <point x="206" y="493" type="line" />
      <point x="202" y="499" type="line" />
    </contour>
    <contour>
      <point x="245" y="260" type="qcurve" />
      <point x="183" y="260" />
      <point x="80" y="320" />
      <point x="20" y="423" />
      <point x="20" y="485" type="qcurve" />
      <point x="20" y="547" />
      <point x="80" y="649" />
      <point x="183" y="710" />
      <point x="245" y="710" type="qcurve" />
      <point x="307" y="710" />
      <point x="409" y="649" />
      <point x="470" y="547" />
      <point x="470" y="485" type="qcurve" />
      <point x="470" y="423" />
      <point x="409" y="320" />
      <point x="307" y="260" />
    </contour>
    <contour>
      <point x="245" y="318" type="qcurve" />
      <point x="291" y="318" />
      <point x="366" y="363" />
      <point x="412" y="439" />
      <point x="412" y="485" type="qcurve" />
      <point x="412" y="531" />
      <point x="366" y="606" />
      <point x="291" y="652" />
      <point x="245" y="652" type="qcurve" />
      <point x="199" y="652" />
      <point x="123" y="606" />
      <point x="78" y="531" />
      <point x="78" y="485" type="qcurve" />
      <point x="78" y="439" />
      <point x="123" y="363" />
      <point x="199" y="318" />
    </contour>
  </outline>
</glyph>
<glyph name="degree" format="2">
  <unicode hex="00B0" />
  <advance width="393" />
  <outline>
    <contour>
      <point x="196" y="385" type="qcurve" />
      <point x="148" y="385" />
      <point x="73" y="430" />
      <point x="30" y="504" />
      <point x="30" y="547" type="qcurve" />
      <point x="30" y="592" />
      <point x="73" y="666" />
      <point x="148" y="710" />
      <point x="196" y="710" type="qcurve" />
      <point x="245" y="710" />
      <point x="320" y="666" />
      <point x="363" y="592" />
      <point x="363" y="547" type="qcurve" />
      <point x="363" y="504" />
      <point x="320" y="430" />
      <point x="245" y="385" />
    </contour>
    <contour>
      <point x="196" y="465" type="qcurve" />
      <point x="231" y="465" />
      <point x="273" y="516" />
      <point x="273" y="547" type="qcurve" />
      <point x="273" y="580" />
      <point x="231" y="630" />
      <point x="196" y="630" type="qcurve" />
      <point x="162" y="630" />
      <point x="120" y="582" />
      <point x="120" y="547" type="qcurve" />
      <point x="120" y="516" />
      <point x="162" y="465" />
    </contour>
  </outline>
</glyph>
<glyph name="plusminus" format="2">
  <unicode hex="00B1" />
  <advance width="578" />
  <outline>
    <contour>
      <point x="96" y="363" type="line" />
      <point x="72" y="363" />
      <point x="40" y="395" />
      <point x="40" y="419" type="qcurve" />
      <point x="40" y="443" />
      <point x="72" y="473" />
      <point x="96" y="473" type="qcurve" />
      <point x="503" y="473" type="line" />
      <point x="527" y="473" />
      <point x="559" y="442" />
      <point x="559" y="418" type="qcurve" />
      <point x="559" y="394" />
      <point x="527" y="363" />
      <point x="503" y="363" type="qcurve" />
    </contour>
    <contour>
      <point x="298" y="225" type="qcurve" />
      <point x="270" y="225" />
      <point x="233" y="261" />
      <point x="233" y="289" type="qcurve" />
      <point x="233" y="569" type="line" />
      <point x="233" y="597" />
      <point x="271" y="633" />
      <point x="299" y="633" type="qcurve" />
      <point x="328" y="633" />
      <point x="363" y="597" />
      <point x="363" y="569" type="qcurve" />
      <point x="363" y="289" type="line" />
      <point x="363" y="261" />
      <point x="327" y="225" />
    </contour>
    <contour>
      <point x="96" y="69" type="line" />
      <point x="72" y="69" />
      <point x="40" y="101" />
      <point x="40" y="125" type="qcurve" />
      <point x="40" y="149" />
      <point x="72" y="181" />
      <point x="96" y="181" type="qcurve" />
      <point x="482" y="181" type="line" />
      <point x="506" y="181" />
      <point x="538" y="149" />
      <point x="538" y="125" type="qcurve" />
      <point x="538" y="101" />
      <point x="506" y="69" />
      <point x="482" y="69" type="qcurve" />
    </contour>
  </outline>
</glyph>
<glyph name="uni00B5" format="2">
  <unicode hex="00B5" />
  <advance width="606" />
  <outline>
    <contour>
      <point x="141" y="-160" type="qcurve" />
      <point x="112" y="-160" />
      <point x="81" y="-129" />
      <point x="81" y="-100" type="qcurve" />
      <point x="80" y="454" type="line" />
      <point x="80" y="480" />
      <point x="114" y="515" />
      <point x="140" y="515" type="qcurve" />
      <point x="166" y="515" />
      <point x="200" y="480" />
      <point x="200" y="454" type="qcurve" />
      <point x="200" y="238" type="line" />
      <point x="200" y="200" />
      <point x="216" y="137" />
      <point x="259" y="100" />
      <point x="297" y="100" type="qcurve" />
      <point x="326" y="100" />
      <point x="370" y="121" />
      <point x="401" y="159" />
      <point x="416" y="209" />
      <point x="416" y="238" type="qcurve" />
      <point x="416" y="454" type="line" />
      <point x="416" y="480" />
      <point x="450" y="515" />
      <point x="476" y="515" type="qcurve" />
      <point x="502" y="515" />
      <point x="536" y="480" />
      <point x="536" y="454" type="qcurve" />
      <point x="536" y="61" type="line" />
      <point x="536" y="35" />
      <point x="502" y="0" />
      <point x="476" y="0" type="qcurve" />
      <point x="450" y="0" />
      <point x="416" y="35" />
      <point x="416" y="61" type="qcurve" />
      <point x="416" y="90" type="line" />
      <point x="418" y="83" type="line" />
      <point x="414" y="73" />
      <point x="380" y="28" />
      <point x="319" y="-10" />
      <point x="275" y="-10" type="qcurve" />
      <point x="266" y="-10" />
      <point x="235" y="-3" />
      <point x="205" y="12" />
      <point x="196" y="25" type="qcurve" />
      <point x="200" y="51" type="line" />
      <point x="200" y="-100" type="line" />
      <point x="200" y="-129" />
      <point x="170" y="-160" />
    </contour>
  </outline>
</glyph>
<glyph name="paragraph" format="2">
  <unicode hex="00B6" />
  <advance width="632" />
  <outline>
    <contour>
      <point x="508" y="0" type="qcurve" />
      <point x="495" y="0" />
      <point x="462" y="21" />
      <point x="462" y="46" type="qcurve" />
      <point x="462" y="655" type="line" />
      <point x="476" y="625" type="line" />
      <point x="389" y="625" type="line" />
      <point x="399" y="644" type="line" />
      <point x="399" y="71" type="line" />
      <point x="399" y="22" />
      <point x="361" y="-37" />
      <point x="300" y="-63" />
      <point x="264" y="-63" type="qcurve" />
      <point x="245" y="-63" />
      <point x="203" y="-56" />
      <point x="188" y="-48" type="qcurve" />
      <point x="173" y="-40" />
      <point x="157" y="-5" />
      <point x="167" y="14" type="qcurve" />
      <point x="175" y="30" />
      <point x="203" y="38" />
      <point x="214" y="35" type="qcurve" />
      <point x="226" y="32" />
      <point x="249" y="27" />
      <point x="259" y="27" type="qcurve" />
      <point x="282" y="27" />
      <point x="309" y="57" />
      <point x="309" y="91" type="qcurve" />
      <point x="309" y="323" type="line" />
      <point x="335" y="285" type="line" />
      <point x="249" y="285" type="line" />
      <point x="176" y="285" />
      <point x="81" y="328" />
      <point x="35" y="418" />
      <point x="35" y="486" type="qcurve" />
      <point x="35" y="561" />
      <point x="91" y="655" />
      <point x="206" y="700" />
      <point x="292" y="700" type="qcurve" />
      <point x="511" y="700" type="line" />
      <point x="529" y="700" />
      <point x="552" y="677" />
      <point x="552" y="659" type="qcurve" />
      <point x="552" y="46" type="line" />
      <point x="552" y="21" />
      <point x="522" y="0" />
    </contour>
  </outline>
</glyph>
<glyph name="periodcentered" format="2">
  <unicode hex="00B7" />
  <advance width="222" />
  <outline>
    <contour>
      <point x="104" y="238" type="line" />
      <point x="75" y="238" />
      <point x="44" y="269" />
      <point x="44" y="298" type="qcurve" />
      <point x="44" y="315" type="line" />
      <point x="44" y="344" />
      <point x="75" y="375" />
      <point x="104" y="375" type="qcurve" />
      <point x="117" y="375" type="line" />
      <point x="146" y="375" />
      <point x="177" y="344" />
      <point x="177" y="315" type="qcurve" />
      <point x="177" y="298" type="line" />
      <point x="177" y="269" />
      <point x="146" y="238" />
      <point x="117" y="238" type="qcurve" />
    </contour>
  </outline>
</glyph>
<glyph name="cedilla" format="2">
  <unicode hex="00B8" />
  <advance width="261" />
  <outline>
    <contour>
      <point x="115" y="-151" type="qcurve" />
      <point x="105" y="-151" />
      <point x="74" y="-140" />
      <point x="50" y="-119" />
      <point x="50" y="-105" type="qcurve" />
      <point x="50" y="-90" />
      <point x="62" y="-75" type="qcurve" />
      <point x="140" y="30" type="line" />
      <point x="211" y="30" type="line" />
      <point x="156" y="-119" type="line" />
      <point x="144" y="-151" />
    </contour>
  </outline>
</glyph>
<glyph name="ordmasculine" format="2">
  <unicode hex="00BA" />
  <advance width="350" />
  <outline>
    <contour>
      <point x="335" y="549" type="qcurve" />
      <point x="335" y="504" />
      <point x="292" y="433" />
      <point x="219" y="392" />
      <point x="173" y="392" type="qcurve" />
      <point x="128" y="392" />
      <point x="56" y="433" />
      <point x="15" y="504" />
      <point x="15" y="549" type="qcurve" />
      <point x="15" y="595" />
      <point x="56" y="667" />
      <point x="128" y="710" />
      <point x="173" y="710" type="qcurve" />
      <point x="219" y="710" />
      <point x="292" y="667" />
      <point x="335" y="595" />
    </contour>
    <contour>
      <point x="240" y="548" type="qcurve" />
      <point x="240" y="581" />
      <point x="205" y="625" />
      <point x="174" y="625" type="qcurve" />
      <point x="144" y="625" />
      <point x="110" y="581" />
      <point x="110" y="548" type="qcurve" />
      <point x="110" y="518" />
      <point x="144" y="477" />
      <point x="174" y="477" type="qcurve" />
      <point x="205" y="477" />
      <point x="240" y="518" />
    </contour>
  </outline>
</glyph>
<glyph name="questiondown" format="2">
  <unicode hex="00BF" />
  <advance width="527" />
  <outline>
    <contour>
      <point x="355" y="209" type="line" />
      <point x="355" y="183" />
      <point x="321" y="148" />
      <point x="295" y="148" type="qcurve" />
      <point x="255" y="148" />
      <point x="188" y="123" />
      <point x="149" y="67" />
      <point x="149" y="21" type="qcurve" />
      <point x="149" y="-12" />
      <point x="182" y="-65" />
      <point x="240" y="-95" />
      <point x="275" y="-95" type="qcurve" />
      <point x="303" y="-95" />
      <point x="353" y="-75" />
      <point x="372" y="-58" type="qcurve" />
      <point x="388" y="-44" />
      <point x="434" y="-31" />
      <point x="456" y="-48" type="qcurve" />
      <point x="480" y="-66" />
      <point x="484" y="-116" />
      <point x="463" y="-137" type="qcurve" />
      <point x="427" y="-174" />
      <point x="331" y="-215" />
      <point x="275" y="-215" type="qcurve" />
      <point x="207" y="-215" />
      <point x="95" y="-152" />
      <point x="29" y="-45" />
      <point x="29" y="21" type="qcurve" />
      <point x="29" y="71" />
      <point x="59" y="148" />
      <point x="114" y="203" />
      <point x="187" y="236" />
      <point x="230" y="243" type="qcurve" />
      <point x="232" y="244" />
      <point x="235" y="246" />
      <point x="235" y="248" type="qcurve" />
      <point x="235" y="285" type="line" />
      <point x="235" y="311" />
      <point x="269" y="346" />
      <point x="295" y="346" type="qcurve" />
      <point x="321" y="346" />
      <point x="355" y="311" />
      <point x="355" y="285" type="qcurve" />
    </contour>
    <contour>
      <point x="300" y="525" type="line" />
      <point x="329" y="525" />
      <point x="360" y="494" />
      <point x="360" y="465" type="qcurve" />
      <point x="360" y="448" type="line" />
      <point x="360" y="419" />
      <point x="329" y="388" />
      <point x="300" y="388" type="qcurve" />
      <point x="287" y="388" type="line" />
      <point x="258" y="388" />
      <point x="227" y="419" />
      <point x="227" y="448" type="qcurve" />
      <point x="227" y="465" type="line" />
      <point x="227" y="494" />
      <point x="258" y="525" />
      <point x="287" y="525" type="qcurve" />
    </contour>
  </outline>
</glyph>
<glyph name="Aring" format="2">
  <unicode hex="00C5" />
  <advance width="643" />
  <outline>
    <contour>
      <point x="322" y="745" type="qcurve" />
      <point x="292" y="745" />
      <point x="240" y="775" />
      <point x="208" y="825" />
      <point x="208" y="854" type="qcurve" />
      <point x="208" y="885" />
      <point x="240" y="935" />
      <point x="292" y="965" />
      <point x="322" y="965" type="qcurve" />
      <point x="352" y="965" />
      <point x="404" y="935" />
      <point x="436" y="885" />
      <point x="436" y="854" type="qcurve" />
      <point x="436" y="825" />
      <point x="404" y="775" />
      <point x="352" y="745" />
    </contour>
    <contour>
      <point x="322" y="815" type="qcurve" />
      <point x="341" y="815" />
      <point x="366" y="837" />
      <point x="366" y="854" type="qcurve" />
      <point x="366" y="875" />
      <point x="339" y="895" />
      <point x="322" y="895" type="qcurve" />
      <point x="303" y="895" />
      <point x="278" y="874" />
      <point x="278" y="854" type="qcurve" />
      <point x="278" y="837" />
      <point x="303" y="815" />
    </contour>
    <contour>
      <point x="332" y="543" type="line" />
      <point x="116" y="35" type="line" />
      <point x="109" y="16" />
      <point x="80" y="-5" />
      <point x="63" y="-5" type="qcurve" />
      <point x="36" y="-5" />
      <point x="10" y="25" />
      <point x="10" y="47" type="qcurve" />
      <point x="10" y="56" />
      <point x="13" y="66" type="qcurve" />
      <point x="262" y="664" type="line" />
      <point x="270" y="684" />
      <point x="303" y="706" />
      <point x="322" y="704" type="qcurve" />
      <point x="340" y="704" />
      <point x="371" y="683" />
      <point x="378" y="664" type="qcurve" />
      <point x="624" y="78" type="line" />
      <point x="629" y="65" />
      <point x="629" y="54" type="qcurve" />
      <point x="629" y="27" />
      <point x="594" y="-5" />
      <point x="573" y="-5" type="qcurve" />
      <point x="555" y="-5" />
      <point x="526" y="17" />
      <point x="518" y="36" type="qcurve" />
      <point x="303" y="537" type="line" />
    </contour>
    <contour>
      <point x="147" y="157" type="line" />
      <point x="202" y="272" type="line" />
      <point x="472" y="272" type="line" />
      <point x="491" y="157" type="line" />
    </contour>
  </outline>
</glyph>
<glyph name="AE" format="2">
  <unicode hex="00C6" />
  <advance width="884" />
  <outline>
    <contour>
      <point x="197" y="256" type="line" />
      <point x="425" y="256" type="line" />
      <point x="407" y="218" type="line" />
      <point x="407" y="507" type="line" />
      <point x="428" y="501" type="line" />
      <point x="103" y="19" type="line" />
      <point x="85" y="-5" />
      <point x="60" y="-5" type="qcurve" />
      <point x="41" y="-5" />
      <point x="6" y="23" />
      <point x="4" y="48" type="qcurve" />
      <point x="3" y="68" />
      <point x="17" y="89" type="qcurve" />
      <point x="425" y="674" type="line" />
      <point x="436" y="689" />
      <point x="465" y="700" />
      <point x="481" y="700" type="qcurve" />
      <point x="783" y="700" type="line" />
      <point x="809" y="700" />
      <point x="844" y="667" />
      <point x="844" y="641" type="qcurve" />
      <point x="844" y="616" />
      <point x="809" y="585" />
      <point x="783" y="585" type="qcurve" />
      <point x="522" y="585" type="line" />
      <point x="532" y="594" type="line" />
      <point x="532" y="391" type="line" />
      <point x="523" y="410" type="line" />
      <point x="738" y="410" type="line" />
      <point x="764" y="410" />
      <point x="799" y="377" />
      <point x="799" y="351" type="qcurve" />
      <point x="799" y="326" />
      <point x="764" y="295" />
      <point x="738" y="295" type="qcurve" />
      <point x="522" y="295" type="line" />
      <point x="532" y="310" type="line" />
      <point x="532" y="89" type="line" />
      <point x="522" y="115" type="line" />
      <point x="783" y="115" type="line" />
      <point x="809" y="115" />
      <point x="844" y="80" />
      <point x="844" y="57" type="qcurve" />
      <point x="844" y="32" />
      <point x="809" y="0" />
      <point x="783" y="0" type="qcurve" />
      <point x="468" y="0" type="line" />
      <point x="442" y="0" />
      <point x="407" y="35" />
      <point x="407" y="61" type="qcurve" />
      <point x="407" y="156" type="line" />
      <point x="432" y="143" type="line" />
      <point x="138" y="143" type="line" />
    </contour>
  </outline>
</glyph>
<glyph name="multiply" format="2">
  <unicode hex="00D7" />
  <advance width="501" />
  <outline>
    <contour>
      <point x="105" y="125" type="qcurve" />
      <point x="84" y="125" />
      <point x="50" y="159" />
      <point x="50" y="181" type="qcurve" />
      <point x="50" y="203" />
      <point x="67" y="220" type="qcurve" />
      <point x="355" y="508" type="line" />
      <point x="372" y="525" />
      <point x="395" y="525" type="qcurve" />
      <point x="420" y="525" />
      <point x="451" y="489" />
      <point x="451" y="470" type="qcurve" />
      <point x="451" y="448" />
      <point x="433" y="430" type="qcurve" />
      <point x="145" y="143" type="line" />
      <point x="127" y="125" />
    </contour>
    <contour>
      <point x="355" y="142" type="qcurve" />
      <point x="67" y="430" type="line" />
      <point x="51" y="447" />
      <point x="51" y="470" type="qcurve" />
      <point x="51" y="495" />
      <point x="86" y="526" />
      <point x="105" y="526" type="qcurve" />
      <point x="127" y="526" />
      <point x="145" y="508" type="qcurve" />
      <point x="433" y="220" type="line" />
      <point x="450" y="203" />
      <point x="450" y="180" type="qcurve" />
      <point x="450" y="155" />
      <point x="415" y="125" />
      <point x="395" y="125" type="qcurve" />
      <point x="374" y="125" />
    </contour>
  </outline>
</glyph>
<glyph name="Oslash" format="2">
  <unicode hex="00D8" />
  <advance width="739" />
  <outline>
    <contour>
      <point x="105" y="-31" type="qcurve" />
      <point x="86" y="-31" />
      <point x="54" y="-2" />
      <point x="54" y="19" type="qcurve" />
      <point x="54" y="37" />
      <point x="66" y="52" type="qcurve" />
      <point x="616" y="730" type="line" />
      <point x="624" y="740" />
      <point x="645" y="749" />
      <point x="655" y="749" type="qcurve" />
      <point x="675" y="749" />
      <point x="706" y="721" />
      <point x="706" y="700" type="qcurve" />
      <point x="706" y="682" />
      <point x="694" y="667" type="qcurve" />
      <point x="144" y="-11" type="line" />
      <point x="137" y="-21" />
      <point x="116" y="-31" />
    </contour>
    <contour>
      <point x="719" y="350" type="qcurve" />
      <point x="719" y="275" />
      <point x="669" y="145" />
      <point x="578" y="46" />
      <point x="453" y="-10" />
      <point x="379" y="-10" type="qcurve" />
      <point x="305" y="-10" />
      <point x="181" y="46" />
      <point x="90" y="145" />
      <point x="40" y="275" />
      <point x="40" y="350" type="qcurve" />
      <point x="40" y="425" />
      <point x="90" y="555" />
      <point x="181" y="654" />
      <point x="305" y="710" />
      <point x="379" y="710" type="qcurve" />
      <point x="453" y="710" />
      <point x="578" y="654" />
      <point x="669" y="555" />
      <point x="719" y="425" />
    </contour>
    <contour>
      <point x="589" y="350" type="qcurve" />
      <point x="589" y="417" />
      <point x="535" y="526" />
      <point x="441" y="590" />
      <point x="379" y="590" type="qcurve" />
      <point x="317" y="590" />
      <point x="223" y="526" />
      <point x="170" y="418" />
      <point x="170" y="350" type="qcurve" />
      <point x="170" y="283" />
      <point x="223" y="174" />
      <point x="317" y="110" />
      <point x="379" y="110" type="qcurve" />
      <point x="441" y="110" />
      <point x="535" y="174" />
      <point x="589" y="283" />
    </contour>
  </outline>
</glyph>
<glyph name="Thorn" format="2">
  <unicode hex="00DE" />
  <advance width="603" />
  <outline>
    <contour>
      <point x="195" y="61" type="line" />
      <point x="195" y="35" />
      <point x="160" y="0" />
      <point x="134" y="0" type="qcurve" />
      <point x="108" y="0" />
      <point x="75" y="35" />
      <point x="75" y="61" type="qcurve" />
      <point x="75" y="679" type="line" />
      <point x="75" y="705" />
      <point x="110" y="740" />
      <point x="136" y="740" type="qcurve" />
      <point x="162" y="740" />
      <point x="195" y="705" />
      <point x="195" y="679" type="qcurve" />
    </contour>
    <contour>
      <point x="184" y="280" type="line" />
      <point x="364" y="280" type="line" />
      <point x="383" y="280" />
      <point x="419" y="309" />
      <point x="443" y="357" />
      <point x="443" y="385" type="qcurve" />
      <point x="443" y="414" />
      <point x="419" y="462" />
      <point x="383" y="490" />
      <point x="364" y="490" type="qcurve" />
      <point x="183" y="490" type="line" />
      <point x="136" y="610" type="line" />
      <point x="364" y="610" type="line" />
      <point x="416" y="610" />
      <point x="507" y="550" />
      <point x="563" y="448" />
      <point x="563" y="385" type="qcurve" />
      <point x="563" y="323" />
      <point x="506" y="221" />
      <point x="415" y="160" />
      <point x="364" y="160" type="qcurve" />
      <point x="124" y="160" type="line" />
    </contour>
  </outline>
</glyph>
<glyph name="germandbls" format="2">
  <unicode hex="00DF" />
  <advance width="667" />
  <outline>
    <contour>
      <point x="177" y="0" type="qcurve" />
      <point x="151" y="0" />
      <point x="117" y="35" />
      <point x="117" y="61" type="qcurve" />
      <point x="117" y="502" type="line" />
      <point x="117" y="556" />
      <point x="150" y="643" />
      <point x="212" y="705" />
      <point x="300" y="737" />
      <point x="355" y="737" type="qcurve" />
      <point x="423" y="737" />
      <point x="519" y="692" />
      <point x="570" y="615" />
      <point x="570" y="567" type="qcurve" />
      <point x="570" y="532" />
      <point x="537" y="478" />
      <point x="486" y="439" />
      <point x="458" y="426" type="qcurve" />
      <point x="455" y="430" type="line" />
      <point x="498" y="416" />
      <point x="579" y="360" />
      <point x="632" y="273" />
      <point x="632" y="211" type="qcurve" />
      <point x="632" y="146" />
      <point x="578" y="46" />
      <point x="484" y="-10" />
      <point x="423" y="-10" type="qcurve" />
      <point x="367" y="-10" />
      <point x="299" y="23" />
      <point x="283" y="45" type="qcurve" />
      <point x="273" y="59" />
      <point x="275" y="103" />
      <point x="300" y="119" type="qcurve" />
      <point x="316" y="129" />
      <point x="352" y="126" />
      <point x="369" y="109" type="qcurve" />
      <point x="379" y="99" />
      <point x="411" y="86" />
      <point x="428" y="86" type="qcurve" />
      <point x="459" y="86" />
      <point x="496" y="116" />
      <point x="512" y="166" />
      <point x="512" y="195" type="qcurve" />
      <point x="512" y="241" />
      <point x="479" y="301" />
      <point x="421" y="337" />
      <point x="384" y="346" type="qcurve" />
      <point x="359" y="354" />
      <point x="337" y="379" />
      <point x="337" y="398" type="qcurve" />
      <point x="337" y="418" />
      <point x="352" y="445" />
      <point x="365" y="452" type="qcurve" />
      <point x="390" y="465" />
      <point x="429" y="494" />
      <point x="451" y="532" />
      <point x="451" y="556" type="qcurve" />
      <point x="451" y="592" />
      <point x="395" y="627" />
      <point x="349" y="627" type="qcurve" />
      <point x="324" y="627" />
      <point x="283" y="611" />
      <point x="253" y="580" />
      <point x="237" y="535" />
      <point x="237" y="506" type="qcurve" />
      <point x="237" y="61" type="line" />
      <point x="237" y="35" />
      <point x="203" y="0" />
    </contour>
    <contour>
      <point x="91" y="380" type="line" />
      <point x="65" y="380" />
      <point x="30" y="413" />
      <point x="30" y="438" type="qcurve" />
      <point x="30" y="463" />
      <point x="65" y="495" />
      <point x="91" y="495" type="qcurve" />
      <point x="185" y="495" type="line" />
      <point x="211" y="495" />
      <point x="226" y="463" />
      <point x="226" y="438" type="qcurve" />
      <point x="226" y="413" />
      <point x="211" y="380" />
      <point x="185" y="380" type="qcurve" />
    </contour>
  </outline>
</glyph>
<glyph name="ae" format="2">
  <unicode hex="00E6" />
  <advance width="926" />
  <outline>
    <contour>
      <point x="272" y="545" type="qcurve" />
      <point x="309" y="545" />
      <point x="386" y="530" />
      <point x="451" y="494" />
      <point x="491" y="433" />
      <point x="491" y="388" type="qcurve" />
      <point x="491" y="267" type="line" />
      <point x="376" y="260" type="line" />
      <point x="376" y="351" type="line" />
      <point x="376" y="389" />
      <point x="340" y="424" />
      <point x="290" y="435" />
      <point x="269" y="435" type="qcurve" />
      <point x="234" y="435" />
      <point x="186" y="417" />
      <point x="152" y="387" />
      <point x="136" y="368" type="qcurve" />
      <point x="117" y="347" />
      <point x="91" y="347" type="qcurve" />
      <point x="72" y="347" />
      <point x="40" y="373" />
      <point x="40" y="395" type="qcurve" />
      <point x="40" y="405" />
      <point x="46" y="426" />
      <point x="54" y="436" type="qcurve" />
      <point x="75" y="462" />
      <point x="134" y="512" />
      <point x="217" y="545" />
    </contour>
    <contour>
      <point x="233" y="-10" type="qcurve" />
      <point x="188" y="-10" />
      <point x="101" y="24" />
      <point x="43" y="97" />
      <point x="43" y="154" type="qcurve" />
      <point x="43" y="206" />
      <point x="86" y="283" />
      <point x="181" y="326" />
      <point x="258" y="326" type="qcurve" />
      <point x="776" y="326" type="line" />
      <point x="758" y="308" type="line" />
      <point x="758" y="333" type="line" />
      <point x="756" y="362" />
      <point x="719" y="408" />
      <point x="664" y="435" />
      <point x="633" y="435" type="qcurve" />
      <point x="603" y="435" />
      <point x="551" y="419" />
      <point x="513" y="381" />
      <point x="491" y="317" />
      <point x="491" y="268" type="qcurve" />
      <point x="491" y="214" />
      <point x="536" y="139" />
      <point x="607" y="100" />
      <point x="647" y="100" type="qcurve" />
      <point x="684" y="100" />
      <point x="728" y="112" />
      <point x="755" y="129" />
      <point x="766" y="135" type="qcurve" />
      <point x="784" y="144" />
      <point x="800" y="144" type="qcurve" />
      <point x="822" y="144" />
      <point x="851" y="114" />
      <point x="851" y="94" type="qcurve" />
      <point x="851" y="67" />
      <point x="823" y="45" type="qcurve" />
      <point x="797" y="23" />
      <point x="703" y="-10" />
      <point x="653" y="-10" type="qcurve" />
      <point x="568" y="-10" />
      <point x="443" y="61" />
      <point x="376" y="183" />
      <point x="376" y="260" type="qcurve" />
      <point x="376" y="350" />
      <point x="450" y="477" />
      <point x="567" y="545" />
      <point x="633" y="545" type="qcurve" />
      <point x="684" y="545" />
      <point x="775" y="503" />
      <point x="845" y="430" />
      <point x="886" y="334" />
      <point x="886" y="280" type="qcurve" />
      <point x="885" y="256" />
      <point x="849" y="226" />
      <point x="825" y="226" type="qcurve" />
      <point x="246" y="226" type="line" />
      <point x="210" y="226" />
      <point x="175" y="204" />
      <point x="163" y="172" />
      <point x="163" y="156" type="qcurve" />
      <point x="163" y="136" />
      <point x="185" y="110" />
      <point x="219" y="98" />
      <point x="237" y="98" type="qcurve" />
      <point x="282" y="98" />
      <point x="342" y="125" />
      <point x="379" y="164" />
      <point x="388" y="181" type="qcurve" />
      <point x="441" y="100" type="line" />
      <point x="427" y="79" />
      <point x="367" y="27" />
      <point x="284" y="-10" />
    </contour>
  </outline>
</glyph>
